<svg version="1.0" xmlns="http://www.w3.org/2000/svg"
 width="300.000000pt" height="533.000000pt" viewBox="0 0 300.000000 533.000000"
 preserveAspectRatio="xMidYMid meet">
<g transform="translate(0.000000,533.000000) scale(0.100000,-0.100000)"
fill="#000000" stroke="none">
<path d="M1581 3812 c-23 -163 -24 -172 -12 -172 6 0 11 8 11 17 0 15 2 14 15
-4 36 -51 124 -32 144 30 13 38 7 62 -22 95 -23 25 -84 31 -105 10 -15 -15
-16 0 -3 54 6 27 5 38 -4 42 -9 3 -16 -17 -24 -72z m121 -49 c24 -22 23 -75
-2 -98 -62 -56 -149 36 -90 95 24 24 67 26 92 3z"/>
<path d="M1236 3838 c-6 -18 -35 -149 -38 -172 -2 -16 -17 -7 -76 47 -39 37
-78 67 -86 67 -9 0 -4 -29 23 -110 19 -60 40 -110 47 -110 11 0 -4 62 -35 143
-6 16 -11 31 -11 33 0 3 30 -22 67 -55 37 -34 71 -61 74 -61 4 0 15 42 26 93
l19 92 29 -93 c16 -53 33 -91 39 -89 14 6 14 3 -25 125 -31 96 -45 118 -53 90z"/>
<path d="M1824 3829 c-10 -17 13 -36 27 -22 12 12 4 33 -11 33 -5 0 -12 -5
-16 -11z"/>
<path d="M1375 3785 c-38 -37 -35 -95 6 -129 35 -30 58 -32 98 -11 34 17 55
62 45 99 -15 63 -103 88 -149 41z m107 -12 c22 -20 24 -76 2 -97 -8 -9 -31
-16 -49 -16 -58 0 -86 69 -45 110 24 24 67 26 92 3z"/>
<path d="M1921 3789 c-30 -71 -81 -204 -81 -212 0 -5 5 -7 11 -5 17 6 100 221
89 232 -5 5 -13 -1 -19 -15z"/>
<path d="M1787 3688 c-16 -51 -23 -86 -17 -92 10 -10 11 -10 40 84 22 72 24
90 11 90 -5 0 -20 -37 -34 -82z"/>
<path d="M1952 3658 c-46 -50 -33 -123 27 -147 32 -14 66 -12 62 4 -2 6 -8 9
-14 7 -36 -10 -94 48 -81 82 4 11 18 7 66 -20 33 -19 63 -34 68 -34 8 0 20 34
20 57 0 6 -12 25 -26 42 -33 39 -89 43 -122 9z m110 -28 c10 -15 16 -33 13
-42 -5 -13 -14 -11 -61 14 -46 25 -53 32 -43 44 19 23 69 13 91 -16z"/>
<path d="M747 3522 c-7 -16 -18 -27 -24 -25 -23 8 -14 -8 44 -73 37 -44 59
-62 66 -55 7 7 -4 25 -31 55 -41 44 -53 78 -32 91 13 8 13 35 0 35 -6 0 -16
-13 -23 -28z"/>
<path d="M957 3514 c-9 -10 4 -34 19 -34 8 0 14 9 14 20 0 19 -19 27 -33 14z"/>
<path d="M2207 3478 c-70 -27 -104 -45 -98 -51 6 -6 21 -5 41 3 30 13 33 11
76 -31 37 -36 44 -49 39 -69 -3 -14 -7 -29 -8 -35 -1 -5 2 -11 7 -13 10 -4 96
219 89 231 -8 13 -36 6 -146 -35z m100 -46 l-23 -62 -39 40 c-21 22 -37 41
-34 43 7 6 114 45 117 42 1 -1 -8 -30 -21 -63z"/>
<path d="M621 3394 c-50 -42 -40 -108 20 -140 39 -20 82 -11 109 23 21 27 27
73 10 73 -5 0 -10 -9 -10 -19 0 -30 -33 -63 -64 -63 -15 0 -29 2 -33 5 -3 3
13 29 36 58 47 59 48 64 22 79 -31 16 -57 12 -90 -16z m73 0 c13 -5 11 -13
-16 -48 -48 -63 -48 -62 -58 -46 -17 27 -11 58 16 79 29 23 34 24 58 15z"/>
<path d="M2321 3289 c-111 -70 -105 -65 -96 -78 4 -7 18 -2 39 14 37 28 48 31
45 13 -6 -51 32 -98 80 -98 42 0 94 47 94 84 0 39 -23 76 -51 83 -17 4 -20 9
-13 16 13 13 14 27 4 27 -5 -1 -51 -28 -102 -61z m117 -9 c40 -38 19 -106 -34
-111 -40 -4 -54 2 -69 31 -34 66 49 130 103 80z"/>
<path d="M522 3243 c-20 -8 -44 -63 -38 -88 5 -19 3 -22 -14 -18 -49 13 -11
-17 90 -69 81 -43 110 -54 110 -43 0 9 -19 24 -42 35 -39 17 -41 19 -20 26 25
7 52 51 52 84 0 35 -53 80 -92 79 -18 0 -39 -3 -46 -6z m94 -39 c43 -42 15
-104 -48 -104 -59 0 -88 65 -48 108 27 29 65 28 96 -4z"/>
<path d="M2428 3106 c-60 -22 -108 -46 -108 -53 0 -16 0 -16 43 2 20 8 38 15
39 15 2 0 3 -18 3 -39 0 -70 63 -108 124 -77 59 31 68 90 22 137 -18 18 -24
29 -15 29 15 0 19 16 7 23 -5 2 -56 -15 -115 -37z m111 -32 c12 -15 21 -35 21
-45 0 -54 -93 -81 -124 -37 -22 32 -20 55 9 83 32 33 68 32 94 -1z"/>
<path d="M431 3024 c-25 -21 -31 -33 -31 -65 0 -95 119 -122 164 -38 17 32 18
40 6 68 -13 33 -54 61 -89 61 -11 0 -33 -12 -50 -26z m101 -21 c26 -23 24 -78
-4 -97 -30 -21 -50 -20 -82 5 -48 38 -24 109 37 109 17 0 39 -7 49 -17z"/>
<path d="M300 2838 c0 -11 27 -18 113 -29 136 -17 130 -16 134 -3 2 6 -34 15
-94 23 -54 7 -110 15 -125 18 -20 4 -28 1 -28 -9z"/>
<path d="M2486 2809 c-31 -37 -33 -67 -5 -103 17 -21 18 -26 5 -26 -9 0 -16
-5 -16 -11 0 -9 20 -10 68 -6 37 4 93 7 125 7 46 0 57 3 57 16 0 14 -8 16 -57
10 -55 -6 -56 -6 -40 12 9 10 17 33 17 51 0 78 -103 111 -154 50z m122 -16
c31 -42 0 -103 -52 -103 -40 0 -63 17 -71 52 -10 41 34 83 78 74 18 -3 38 -14
45 -23z"/>
<path d="M385 2735 c-54 -53 -16 -145 59 -145 52 0 91 37 91 88 0 41 -20 76
-37 66 -6 -4 -6 -10 1 -17 6 -6 11 -28 11 -48 0 -36 -26 -69 -53 -69 -4 0 -6
34 -4 75 4 74 4 75 -20 75 -13 0 -35 -11 -48 -25z m52 -60 c0 -36 -4 -65 -9
-65 -19 0 -48 42 -48 69 0 27 29 61 51 61 4 0 6 -29 6 -65z"/>
<path d="M2493 2605 c-30 -21 -46 -75 -34 -109 16 -41 29 -31 24 18 -4 35 -1
48 16 65 26 26 54 28 47 4 -3 -10 -8 -44 -12 -75 -6 -57 -6 -58 19 -58 72 0
108 99 53 146 -31 28 -81 31 -113 9z m115 -68 c3 -29 -2 -39 -23 -53 -14 -9
-28 -15 -30 -12 -3 3 -2 33 1 67 7 60 7 61 28 48 13 -9 22 -27 24 -50z"/>
<path d="M360 2554 c0 -8 31 -20 80 -31 44 -10 80 -20 80 -23 -1 -3 -30 -23
-65 -45 -36 -22 -65 -46 -65 -53 0 -17 0 -17 88 42 39 27 72 54 72 61 0 7 -42
23 -95 37 -70 18 -95 21 -95 12z"/>
<path d="M2560 2409 c-25 -4 -64 -8 -88 -8 -58 -1 -63 -21 -15 -64 98 -87 113
-99 113 -85 0 8 -27 37 -59 64 -33 27 -60 52 -60 57 -1 4 23 8 52 8 69 2 109
11 115 27 2 6 0 11 -5 11 -4 -1 -28 -5 -53 -10z"/>
<path d="M537 2393 c-4 -3 2 -12 12 -19 27 -20 35 -61 16 -90 -8 -13 -19 -24
-23 -24 -5 0 -17 28 -28 62 -11 34 -25 63 -32 66 -6 2 -23 -8 -37 -22 -32 -32
-33 -76 -2 -112 51 -59 157 -16 157 64 0 20 -36 82 -48 82 -5 0 -12 -3 -15 -7z
m-44 -65 c8 -24 18 -51 22 -60 6 -14 2 -18 -18 -18 -27 0 -57 32 -57 60 0 14
26 60 35 60 2 0 10 -19 18 -42z"/>
<path d="M2387 2259 c-35 -21 -64 -109 -34 -109 7 0 12 14 13 32 1 35 33 68
65 68 26 0 24 -16 -11 -79 -16 -29 -27 -57 -24 -62 11 -19 80 -9 102 14 67 71
-26 186 -111 136z m107 -45 c18 -46 -8 -94 -51 -94 -29 0 -29 0 2 60 26 52 39
61 49 34z"/>
<path d="M544 2200 c-35 -14 -74 -69 -74 -103 0 -39 68 -159 84 -150 19 12
181 116 184 118 2 2 -13 29 -34 60 -51 77 -100 100 -160 75z m93 -29 c13 -7
76 -91 71 -96 -14 -12 -150 -95 -156 -95 -12 0 -52 69 -58 98 -13 72 75 129
143 93z"/>
<path d="M2286 2112 c-3 -5 36 -38 87 -73 117 -82 115 -81 121 -70 5 8 -183
151 -198 151 -3 0 -7 -4 -10 -8z"/>
<path d="M2211 2014 c-24 -20 -31 -34 -31 -61 0 -46 45 -93 90 -93 43 0 90 47
90 90 0 22 -9 41 -29 61 -37 37 -79 38 -120 3z m88 -4 c28 -14 45 -64 32 -89
-25 -46 -87 -50 -116 -8 -22 32 -18 63 11 86 29 23 46 26 73 11z"/>
<path d="M2070 1972 c0 -4 11 -24 25 -43 l26 -34 -37 -6 c-72 -12 -95 -90 -43
-145 39 -42 108 -33 134 16 11 22 19 27 37 22 l23 -6 -26 35 c-14 19 -47 64
-73 102 -43 61 -66 81 -66 59z m90 -135 c31 -55 -26 -116 -84 -89 -48 22 -47
103 1 120 36 12 64 1 83 -31z"/>
<path d="M782 1940 c-30 -19 -52 -54 -52 -85 0 -7 12 -27 26 -44 19 -22 34
-31 57 -31 l31 0 -25 -27 c-47 -52 -53 -63 -37 -63 18 0 169 181 161 193 -3 4
-11 3 -18 -3 -10 -8 -14 -5 -19 15 -12 49 -77 73 -124 45z m86 -26 c46 -32 17
-114 -40 -114 -40 0 -68 25 -68 62 0 56 60 86 108 52z"/>
<path d="M970 1825 c0 -10 10 -15 30 -15 37 0 70 -31 70 -65 0 -14 -2 -25 -5
-25 -2 0 -33 16 -68 35 -35 19 -67 32 -70 28 -4 -3 -7 -23 -7 -44 0 -29 6 -43
31 -63 34 -29 47 -31 84 -14 50 23 70 94 37 134 -33 41 -102 60 -102 29z m30
-92 c27 -16 50 -31 50 -36 0 -16 -51 -27 -73 -16 -28 15 -37 28 -37 57 0 28 0
28 60 -5z"/>
<path d="M1873 1780 c-18 -11 -33 -27 -33 -35 0 -19 19 -20 26 -1 9 23 58 36
84 23 13 -7 22 -16 22 -21 0 -5 -28 -21 -61 -35 -34 -14 -61 -31 -61 -38 0
-19 51 -53 81 -53 44 0 83 40 83 85 0 30 -7 44 -32 66 -38 34 -65 36 -109 9z
m117 -85 c0 -34 -43 -61 -77 -49 -42 14 -37 30 14 52 62 26 63 26 63 -3z"/>
<path d="M1178 1728 c-84 -130 -116 -188 -104 -188 8 0 38 39 68 88 l53 87 7
-50 c4 -27 10 -76 13 -108 4 -38 11 -57 18 -54 7 2 37 43 67 92 l55 88 9 -106
c6 -80 12 -107 24 -112 12 -5 14 3 9 47 -4 29 -9 85 -13 125 -4 44 -12 74 -20
77 -7 3 -33 -30 -67 -85 -57 -94 -67 -97 -67 -21 0 20 -3 61 -6 90 -7 57 -22
66 -46 30z"/>
<path d="M1767 1744 c-3 -3 1 -28 10 -56 17 -59 11 -94 -17 -103 -11 -3 -20
-13 -20 -21 0 -12 4 -12 21 -4 11 6 23 18 26 27 5 14 8 14 20 -2 24 -33 24 -9
1 79 -22 82 -27 93 -41 80z"/>
<path d="M1570 1696 c0 -8 4 -17 9 -20 11 -7 33 18 24 27 -12 12 -33 7 -33 -7z"/>
</g>
</svg>
