
<svg version="1.1" xmlns="http://www.w3.org/2000/svg" width="375" height="666">
<path d="M0 0 C-0.57966802 6.56036984 -2.75113559 12.30180554 -5.0625 18.4375 C-5.43955078 19.45521484 -5.81660156 20.47292969 -6.20507812 21.52148438 C-7.13053436 24.01670181 -8.06230651 26.50936119 -9 29 C-4.74372756 27.58124252 -1.39290984 24.99901523 2.30859375 22.49609375 C5 21 5 21 9 21 C9.061875 21.7425 9.12375 22.485 9.1875 23.25 C10.2452497 26.83007591 12.06862656 27.80146992 15 30 C16.20643566 33.61930698 16.32268559 36.19231005 16 40 C13.87130219 44.02932085 12.2143755 46.30500437 8 48 C4.92522493 48.52254675 2.07504868 48.53359521 -1 48 C-5.05239804 45.00474928 -6.98221699 41.56656154 -9 37 C-9.928125 37.515625 -10.85625 38.03125 -11.8125 38.5625 C-15 40 -15 40 -18 39 C-17.8125 37.125 -17.8125 37.125 -17 35 C-14.4375 33.75 -14.4375 33.75 -12 33 C-12 32.34 -12 31.68 -12 31 C-12.66 31 -13.32 31 -14 31 C-13 23.57142857 -13 23.57142857 -12 20 C-12.66 20 -13.32 20 -14 20 C-14 19.34 -14 18.68 -14 18 C-14.66 18 -15.32 18 -16 18 C-18.625 15.625 -18.625 15.625 -21 13 C-21 12.34 -21 11.68 -21 11 C-21.70125 11.33 -22.4025 11.66 -23.125 12 C-26.26003116 13.09044562 -28.70563182 13.15322643 -32 13 C-32.33 12.01 -32.66 11.02 -33 10 C-26.82471606 7.18588787 -20.59950435 4.58248848 -14.25 2.1875 C-13.01443359 1.70120117 -13.01443359 1.70120117 -11.75390625 1.20507812 C-4.34488579 -1.58076129 -4.34488579 -1.58076129 0 0 Z M-6 4 C-9.96 5.65 -13.92 7.3 -18 9 C-17.071875 10.155 -16.14375 11.31 -15.1875 12.5 C-14.66542969 13.1496875 -14.14335937 13.799375 -13.60546875 14.46875 C-12.00795167 16.34509128 -12.00795167 16.34509128 -9 16 C-8.30314502 14.3789897 -7.61777139 12.75303934 -6.9375 11.125 C-6.55464844 10.22007812 -6.17179687 9.31515625 -5.77734375 8.3828125 C-4.6976002 6.01933138 -4.6976002 6.01933138 -6 4 Z M-1.4375 30.5625 C-3.56667558 33.88401391 -3.42255137 36.12661246 -3 40 C-1.26425255 43.32164605 -1.26425255 43.32164605 2.3125 43.875 C5.92622819 44.21920685 5.92622819 44.21920685 8.875 43 C11.85362349 40.19658965 11.85695682 38.00520899 12 34 C11.24849977 30.72226496 11.24849977 30.72226496 8 29 C4.12661246 28.57744863 1.88401391 28.43332442 -1.4375 30.5625 Z " fill="#C3C3C3" transform="translate(295,226)"/>
<path d="M0 0 C1.32 0.33 2.64 0.66 4 1 C4.19916016 2.75376953 4.19916016 2.75376953 4.40234375 4.54296875 C4.58062013 6.09115839 4.75901161 7.63933478 4.9375 9.1875 C5.02451172 9.95642578 5.11152344 10.72535156 5.20117188 11.51757812 C5.64964421 15.38772828 6.1529001 19.19186624 7 23 C11.19126571 17.10565514 15.22823379 11.17198107 19 5 C21.475 5.495 21.475 5.495 24 6 C24.42998603 9.91409265 24.85715029 13.82848207 25.28173828 17.74316406 C25.49753938 19.72737551 25.71555385 21.71134582 25.93359375 23.6953125 C26.13662109 25.57089844 26.13662109 25.57089844 26.34375 27.484375 C26.46943359 28.63647461 26.59511719 29.78857422 26.72460938 30.97558594 C27 34 27 34 27 38 C25.35 37.67 23.7 37.34 22 37 C21.01 29.41 20.02 21.82 19 14 C16.17070504 18.75485571 16.17070504 18.75485571 13.34643555 23.51269531 C8.79083662 31.13714582 8.79083662 31.13714582 7 33 C5.68 33 4.36 33 3 33 C1.84986807 30.69973614 1.70767601 28.98752064 1.46484375 26.4296875 C1.37783203 25.53378906 1.29082031 24.63789063 1.20117188 23.71484375 C1.11416016 22.77769531 1.02714844 21.84054687 0.9375 20.875 C0.84662109 19.93011719 0.75574219 18.98523438 0.66210938 18.01171875 C0.43785901 15.67479389 0.21730943 13.33757884 0 11 C-3.99061193 14.6156551 -6.45519164 18.86782191 -9.08789062 23.48632812 C-11.68729674 27.89576558 -11.68729674 27.89576558 -15 29 C-15.66 28.67 -16.32 28.34 -17 28 C-15.25855652 22.91908255 -12.42868007 18.54491296 -9.625 14 C-9.14289063 13.2059375 -8.66078125 12.411875 -8.1640625 11.59375 C-5.66103513 7.51272712 -3.11102041 3.6565548 0 0 Z " fill="#B1B1B1" transform="translate(149,446)"/>
<path d="M0 0 C0.99 0 1.98 0 3 0 C6.28044085 9.5993228 9.30198468 19.21781037 12 29 C10.35 29.33 8.7 29.66 7 30 C6.81824219 29.35933594 6.63648438 28.71867187 6.44921875 28.05859375 C4.93729955 22.85604103 3.24999329 17.92855673 1 13 C0.51933465 14.89545392 0.04053257 16.79138039 -0.4375 18.6875 C-0.70433594 19.74324219 -0.97117188 20.79898438 -1.24609375 21.88671875 C-1.89897932 24.5828317 -2.47941193 27.2757576 -3 30 C-7.85670173 29.58269656 -10.45136075 27.1999142 -13.8125 23.9375 C-14.31458984 23.46505859 -14.81667969 22.99261719 -15.33398438 22.50585938 C-16.56422789 21.34591548 -17.78327065 20.17411185 -19 19 C-18.79503906 19.78503906 -18.59007812 20.57007813 -18.37890625 21.37890625 C-16.96045756 26.91017745 -15.64503363 32.32370402 -15 38 C-16.32 38 -17.64 38 -19 38 C-20.34569019 34.10832482 -21.67436 30.21104602 -23 26.3125 C-23.3815625 25.20970703 -23.763125 24.10691406 -24.15625 22.97070312 C-24.5171875 21.90400391 -24.878125 20.83730469 -25.25 19.73828125 C-25.58515625 18.75899658 -25.9203125 17.77971191 -26.265625 16.77075195 C-26.98813738 14.04475696 -27.14322738 11.80412361 -27 9 C-25.35 9 -23.7 9 -22 9 C-22 9.66 -22 10.32 -22 11 C-21.34 11 -20.68 11 -20 11 C-20 11.66 -20 12.32 -20 13 C-19.34 13 -18.68 13 -18 13 C-18 13.66 -18 14.32 -18 15 C-17.41734375 15.26554688 -16.8346875 15.53109375 -16.234375 15.8046875 C-13.93825772 17.03302996 -12.19643982 18.40314939 -10.25 20.125 C-9.63640625 20.66382813 -9.0228125 21.20265625 -8.390625 21.7578125 C-7.93171875 22.16773438 -7.4728125 22.57765625 -7 23 C-6.61908203 21.38931641 -6.61908203 21.38931641 -6.23046875 19.74609375 C-5.8831341 18.30981802 -5.53545967 16.87362444 -5.1875 15.4375 C-5.02185547 14.73302734 -4.85621094 14.02855469 -4.68554688 13.30273438 C-3.54083058 8.61587709 -2.01178987 4.38673952 0 0 Z " fill="#BEBEBE" transform="translate(155,184)"/>
<path d="M0 0 C4.09279879 3.93139264 7.48591951 9.00336099 9.875 14.125 C9.75 16.35546875 9.75 16.35546875 8.875 18.125 C3.83928571 21.125 3.83928571 21.125 0.875 21.125 C0.875 21.785 0.875 22.445 0.875 23.125 C-5.875 27.125 -5.875 27.125 -8.125 27.125 C-8.125 27.785 -8.125 28.445 -8.125 29.125 C-13.875 32.125 -13.875 32.125 -16.125 32.125 C-17.57562773 30.04547027 -18.8955499 27.98732119 -20.1875 25.8125 C-20.55166016 25.21759766 -20.91582031 24.62269531 -21.29101562 24.00976562 C-24.47860054 18.73640426 -25.97172859 14.32258284 -25.125 8.125 C-22.70371365 3.46178184 -19.41617727 -0.80297753 -14.2421875 -2.48828125 C-9.05232399 -3.43624525 -4.50617688 -2.70370613 0 0 Z M-18.125 5.125 C-20.74282709 8.06013946 -21.125 9.44453592 -21.125 13.375 C-19.85893717 18.12273561 -17.68453021 21.95986043 -15.125 26.125 C-11.533811 24.78231932 -8.33783008 23.17699725 -5.0625 21.1875 C-4.22589844 20.68347656 -3.38929687 20.17945313 -2.52734375 19.66015625 C-0.30628824 18.2408476 1.79116956 16.73720138 3.875 15.125 C3.24932124 11.05808803 1.44866769 8.292591 -1.125 5.125 C-8.19000295 0.64408373 -11.04239416 0.78175874 -18.125 5.125 Z " fill="#BABABA" transform="translate(83.125,391.875)"/>
<path d="M0 0 C1.32 0 2.64 0 4 0 C4.0270043 1.45823212 4.04639787 2.91660675 4.0625 4.375 C4.07410156 5.18710938 4.08570313 5.99921875 4.09765625 6.8359375 C4 9 4 9 3 11 C4.7634375 10.6596875 4.7634375 10.6596875 6.5625 10.3125 C11.09281321 9.75022708 13.99506071 10.72268158 18 13 C20.2545623 14.89092322 20.87127795 16.15687057 21.3125 19.046875 C21.60547813 24.50359263 20.70909707 27.77575056 17 32 C13.5905957 34.58644464 10.1613551 34.36503115 6 34 C5.113125 33.46375 4.22625 32.9275 3.3125 32.375 C2.549375 31.92125 1.78625 31.4675 1 31 C-1.30287793 31.69140351 -1.30287793 31.69140351 -3 33 C-3.33 32.67 -3.66 32.34 -4 32 C-3.80381302 21.82845955 -3.22932839 9.68798518 0 0 Z M3.625 15.5 C1.65311247 18.53367312 1.35724957 20.51951801 1.55078125 24.08984375 C1.91825159 26.28834847 1.91825159 26.28834847 4.125 28.5625 C7.68392876 30.34196438 9.25019194 30.2227635 13 29 C15.01951062 28.06402685 15.01951062 28.06402685 16 26 C16.64919671 20.40762823 16.64919671 20.40762823 14.375 15.5 C10.46069347 13.0278064 7.53930653 13.0278064 3.625 15.5 Z " fill="#B8B8B8" transform="translate(198,180)"/>
<path d="M0 0 C1.85156926 1.6354169 3.20520451 3.28316204 4.61328125 5.30859375 C6.21168346 7.25819419 7.69991084 8.02405598 10 9 C8.29905127 12.90835971 5.73558567 16.10767134 3.125 19.4375 C2.69058594 19.99759766 2.25617188 20.55769531 1.80859375 21.13476562 C0.95194022 22.23709607 0.09167062 23.33662732 -0.77246094 24.43310547 C-1.93096027 25.91187411 -3.06401146 27.41047783 -4.1953125 28.91015625 C-4.79085937 29.59980469 -5.38640625 30.28945313 -6 31 C-6.66 31 -7.32 31 -8 31 C-8.33 31.99 -8.66 32.98 -9 34 C-10.32 33.34 -11.64 32.68 -13 32 C-11.35 29.36 -9.7 26.72 -8 24 C-9.98 23.01 -11.96 22.02 -14 21 C-14 20.34 -14 19.68 -14 19 C-14.66 19 -15.32 19 -16 19 C-18.34728069 15.33237392 -18.4430704 12.28301385 -18 8 C-13.98872481 0.27458112 -8.42699146 -2.99262418 0 0 Z M-8.8125 3.6875 C-11.10358292 4.94189251 -11.10358292 4.94189251 -13 7 C-13.53967094 12.20087258 -13.53967094 12.20087258 -11.875 16.9375 C-9.13769198 18.48864121 -7.15548924 18.93689022 -4 19 C-0.83504089 17.17135696 0.65930083 15.97342619 1.875 12.5 C2.13721336 9.10017487 2.13721336 9.10017487 1 6 C-3.64558068 3.31124323 -3.64558068 3.31124323 -8.8125 3.6875 Z " fill="#BEBEBE" transform="translate(109,422)"/>
<path d="M0 0 C3.76013514 3.22297297 3.76013514 3.22297297 4.625 6.25 C4.9594578 10.93240915 4.76353451 12.97293099 2.625 17.25 C6.255 16.92 9.885 16.59 13.625 16.25 C13.625 17.9 13.625 19.55 13.625 21.25 C-2.215 21.745 -2.215 21.745 -18.375 22.25 C-18.375 21.26 -18.375 20.27 -18.375 19.25 C-17.715 19.25 -17.055 19.25 -16.375 19.25 C-16.87 18.610625 -17.365 17.97125 -17.875 17.3125 C-19.88623069 13.20623735 -20.11784783 9.74790277 -19.375 5.25 C-14.91311346 -2.23959526 -7.66114025 -3.97244309 0 0 Z M-13.3125 4.4375 C-15.06003892 7.41859581 -15.51615901 10.01485871 -15.125 13.4375 C-14.41725243 15.62392017 -14.41725243 15.62392017 -11.375 17.25 C-9.42285375 17.56478577 -9.42285375 17.56478577 -7.375 17.5 C-6.694375 17.50515625 -6.01375 17.5103125 -5.3125 17.515625 C-3.05083993 17.34917603 -3.05083993 17.34917603 -0.375 15.25 C0.76987832 11.20476326 1.05451635 9.12770731 -0.8125 5.3125 C-3.48835266 3.15876493 -4.1705237 2.88863553 -7.4375 2.75 C-11.18671308 2.95202603 -11.18671308 2.95202603 -13.3125 4.4375 Z " fill="#D1D1D1" transform="translate(326.375,311.75)"/>
<path d="M0 0 C1.75 0.125 1.75 0.125 4 1 C8 6.22222222 8 6.22222222 8 9 C8.66 9 9.32 9 10 9 C11.67235225 11.02880389 13.18697635 13.03759981 14.6875 15.1875 C15.11611328 15.76564453 15.54472656 16.34378906 15.98632812 16.93945312 C17.98246608 19.78419079 19.04729199 21.3996322 18.76953125 24.92578125 C18.51558594 25.61027344 18.26164062 26.29476563 18 27 C16.68 26.67 15.36 26.34 14 26 C13.9071875 26.86625 13.9071875 26.86625 13.8125 27.75 C12.64473159 30.98382021 10.83624161 32.13065894 8 34 C4.49680457 35.3828403 3.08647363 35.02730746 -0.5625 33.875 C-4.30040478 31.83614285 -6.0026035 30.75510543 -8 27 C-8.60340341 23.54466158 -8.65370502 20.45042562 -8 17 C-5.04005725 12.90831443 -1.57461822 11.02134293 3 9 C2.319375 8.071875 1.63875 7.14375 0.9375 6.1875 C0.298125 5.135625 -0.34125 4.08375 -1 3 C-0.67 2.01 -0.34 1.02 0 0 Z M-2 16 C-3.88886253 18.51848338 -4.00715839 19.82819868 -3.875 23 C-2.85227852 26.50647364 -1.98496444 27.90245742 1 30 C4.63632575 30.60605429 6.28314769 30.47161336 9.375 28.4375 C11.62340519 25.06489221 11.56783945 22.97487617 11 19 C9.04384405 16.24689163 7.67691965 15.23692188 4.5 14.125 C1.58840581 13.97942029 0.3538515 14.29548685 -2 16 Z " fill="#BFBFBF" transform="translate(259,418)"/>
<path d="M0 0 C4.86480496 3.89184397 4.86480496 3.89184397 5.54296875 7.796875 C5.74943028 11.12257959 5.86286598 13.69488278 4.02734375 16.5625 C2.76238174 17.97192842 1.47616325 19.36220881 0.1875 20.75 C0.5175 21.74 0.8475 22.73 1.1875 23.75 C2.8375 24.08 4.4875 24.41 6.1875 24.75 C6.1875 26.4 6.1875 28.05 6.1875 29.75 C0.6813441 28.18227506 -3.93342316 26.26596792 -8.6875 23.07421875 C-11.90246495 21.07077552 -15.34685456 19.58598707 -18.80859375 18.05859375 C-20.8125 16.75 -20.8125 16.75 -21.59765625 14.59765625 C-21.66855469 13.98792969 -21.73945312 13.37820313 -21.8125 12.75 C-20.8225 12.42 -19.8325 12.09 -18.8125 11.75 C-18.73 10.88375 -18.6475 10.0175 -18.5625 9.125 C-17.69417943 5.21755744 -16.28461289 2.87649571 -13.8125 -0.25 C-8.98799824 -1.85816725 -4.6231662 -2.05474053 0 0 Z M-13.8125 5.75 C-14.92454374 9.08613123 -14.9204276 11.42621719 -13.8125 14.75 C-13.1525 14.75 -12.4925 14.75 -11.8125 14.75 C-11.8125 15.41 -11.8125 16.07 -11.8125 16.75 C-9.73086944 18.01384713 -8.33763785 18.76693993 -5.875 18.6875 C-2.66648908 17.22908594 -0.94398573 15.55138125 1.1875 12.75 C1.52410145 9.10592863 1.52410145 9.10592863 0.1875 5.75 C-2.35240367 3.56286073 -4.07570603 2.85782351 -7.375 2.375 C-10.38902169 2.83869564 -11.69525702 3.5571412 -13.8125 5.75 Z " fill="#C0C0C0" transform="translate(77.8125,260.25)"/>
<path d="M0 0 C0.103125 0.928125 0.20625 1.85625 0.3125 2.8125 C0.67281188 5.96658384 0.67281188 5.96658384 2.51171875 7.39453125 C5.03257014 10.11387488 4.52653544 13.00817569 4.41796875 16.5546875 C3.77231012 20.33209217 2.05769148 21.82564161 -1 24 C-4.7704892 26.2419125 -7.91956001 26.24224584 -12.13671875 25.51953125 C-15.21314462 24.66174374 -16.28074461 23.7111335 -18 21 C-18.90256688 17.69577527 -19.5086153 14.38796817 -20 11 C-24.455 12.485 -24.455 12.485 -29 14 C-29.33 12.35 -29.66 10.7 -30 9 C-29.27296875 8.76925781 -28.5459375 8.53851563 -27.796875 8.30078125 C-21.22375121 6.16872956 -14.84677777 3.77491264 -8.49609375 1.05078125 C-3.34854772 -1.11618257 -3.34854772 -1.11618257 0 0 Z M-14 9.125 C-16.25635636 11.83717395 -16.25635636 11.83717395 -16.1875 15.0625 C-14.57376969 19.05435919 -12.89524556 20.23611522 -9 22 C-5.83864691 21.44211416 -3.81388093 20.51545792 -1.125 18.8125 C0.64275934 15.96444328 0.18455937 13.2605489 0 10 C-0.66 10 -1.32 10 -2 10 C-2 9.34 -2 8.68 -2 8 C-6.42254446 5.78872777 -10.06462651 6.33744378 -14 9.125 Z " fill="#D3D3D3" transform="translate(319,273)"/>
<path d="M0 0 C0 5.61 0 11.22 0 17 C0.99 17 1.98 17 3 17 C3.94169964 14.17490109 4.10678832 12.48060852 4.0625 9.5625 C4.05347656 8.80066406 4.04445313 8.03882813 4.03515625 7.25390625 C4.02355469 6.51011719 4.01195313 5.76632812 4 5 C4 3.68 4 2.36 4 1 C6.47407292 1.32987639 7.6637767 1.57972087 9.25 3.5625 C10.58982423 7.91692875 10.69951104 12.25122241 9 16.5 C8.67 16.995 8.34 17.49 8 18 C7.34 18 6.68 18 6 18 C6 18.66 6 19.32 6 20 C1.7567553 22.8288298 -2.01734529 22.65268001 -7 22 C-10.50252011 19.95686327 -12.77361702 17.90212767 -14 14 C-14.46316102 9.83155082 -14.23578269 7.49985931 -12.4375 3.6875 C-8.84392338 -0.27464859 -5.15820324 -1.71940108 0 0 Z M-8.1875 5.5625 C-10.37816887 7.97915558 -10.37816887 7.97915558 -9.875 11.625 C-9.29259286 15.04542055 -9.29259286 15.04542055 -7 17 C-6.01 17 -5.02 17 -4 17 C-4 12.71 -4 8.42 -4 4 C-6.17679328 3.80625394 -6.17679328 3.80625394 -8.1875 5.5625 Z " fill="#C1C1C1" transform="translate(58,321)"/>
<path d="M0 0 C4.29807334 -0.05945951 8.34122639 -0.11448852 12 2.34375 C14.89423277 5.40495773 16.35667253 7.93545162 16.5 12.1875 C16.0808703 15.38336397 15.76071707 17.3589244 14 20 C13.34 20 12.68 20 12 20 C12 20.66 12 21.32 12 22 C8.30858974 24.46094018 4.28359954 24.83040989 0 24 C-3.02089981 22.2524257 -5.41608883 20.16782234 -7 17 C-7.23188406 9.69565217 -7.23188406 9.69565217 -6 6 C-1.76677156 6.62045463 1.52290295 8.10523559 5.3125 10.0625 C6.38113281 10.61035156 7.44976562 11.15820312 8.55078125 11.72265625 C9.35902344 12.14417969 10.16726562 12.56570313 11 13 C9.73053486 8.17557816 9.73053486 8.17557816 6 5 C3.67891331 4.29187186 1.34622853 3.61975848 -1 3 C-0.67 2.01 -0.34 1.02 0 0 Z M-3 11 C-3.41870553 13.33071879 -3.41870553 13.33071879 -3 16 C-0.9703869 18.52383326 -0.9703869 18.52383326 2 20 C5.24293584 19.86382428 5.24293584 19.86382428 8 19 C8 18.01 8 17.02 8 16 C6.54462432 15.16151196 5.08559627 14.32936066 3.625 13.5 C2.81289062 13.0359375 2.00078125 12.571875 1.1640625 12.09375 C-0.89336874 10.84964141 -0.89336874 10.84964141 -3 11 Z " fill="#B1B1B1" transform="translate(121,436)"/>
<path d="M0 0 C3.61663508 2.08652024 5.67529536 3.51294304 8 7 C8.46972834 11.77557141 8.47049228 14.05901543 6.3125 18.375 C3.82873403 21.19441002 2.65122129 22.23579089 -1 23 C-4.29416842 22.72083319 -7.03124226 22.48437887 -10 21 C-9.28028381 17.24654344 -7.66887798 14.13908031 -5.9375 10.75 C-5.11572266 9.13351562 -5.11572266 9.13351562 -4.27734375 7.484375 C-3.85582031 6.66453125 -3.43429687 5.8446875 -3 5 C-7.21610381 5.30119664 -7.21610381 5.30119664 -10.375 7.6875 C-11.14251823 10.52731746 -11.13309772 13.07185027 -11 16 C-12.9375 16.5625 -12.9375 16.5625 -15 17 C-16 16 -16 16 -16.3125 12.3125 C-16.24061051 7.85535137 -14.99172618 5.38537437 -12 2 C-7.68086298 -0.91072277 -4.98780321 -1.5586885 0 0 Z M1 6 C-0.98 9.96 -2.96 13.92 -5 18 C-2.04837233 19.33567466 -2.04837233 19.33567466 0.625 18 C3.3218879 16.10679674 3.3218879 16.10679674 4 12.5 C4 11.345 4 10.19 4 9 C3.01 8.01 2.02 7.02 1 6 Z " fill="#BABABA" transform="translate(308,382)"/>
<path d="M0 0 C3.57782182 2.58821153 4.77438421 4.1727421 5.9375 8.4375 C6.00215759 12.12298264 5.4033452 14.61546157 4 18 C-0.49797113 16.31326082 -4.72886302 14.18326108 -9 12 C-9 11.34 -9 10.68 -9 10 C-9.99 10 -10.98 10 -12 10 C-11.73343428 12.93443402 -11.73343428 12.93443402 -11 16 C-7.55549263 18.29633824 -5.06187717 18.54016485 -1 19 C-1 20.32 -1 21.64 -1 23 C-5.93712591 23.60454603 -9.90040173 23.66408258 -14.0625 20.6875 C-17.01165239 17.80693255 -17.52220449 15.51478922 -17.6875 11.4375 C-17.44589111 7.8810172 -17.05736668 6.1041099 -15.3125 2.9375 C-10.45680633 -1.13078389 -6.01736591 -1.8599131 0 0 Z M-8 3 C-8.66 4.32 -9.32 5.64 -10 7 C-8.37750059 7.83819158 -6.75191503 8.6704116 -5.125 9.5 C-4.22007812 9.9640625 -3.31515625 10.428125 -2.3828125 10.90625 C-0.13403141 12.13905589 -0.13403141 12.13905589 2 12 C1.65544802 8.89903219 1.15182706 7.20062862 -0.75 4.6875 C-3.41238939 2.69070796 -4.74952319 2.63883591 -8 3 Z " fill="#BCBCBC" transform="translate(257,206)"/>
<path d="M0 0 C0.7734375 0.4640625 0.7734375 0.4640625 1.5625 0.9375 C0.06329488 4.05123372 -1.51902136 7.05978205 -3.4375 9.9375 C-4.0975 9.9375 -4.7575 9.9375 -5.4375 9.9375 C-5.4375 10.5975 -5.4375 11.2575 -5.4375 11.9375 C-6.0975 11.9375 -6.7575 11.9375 -7.4375 11.9375 C-7.7675 13.5875 -8.0975 15.2375 -8.4375 16.9375 C-5.03437262 15.87874926 -2.42396769 14.92847846 0.5625 12.9375 C1.29593428 9.87193402 1.29593428 9.87193402 1.5625 6.9375 C2.8825 6.9375 4.2025 6.9375 5.5625 6.9375 C5.54088091 11.89908096 5.28489294 15.0298781 2.125 19 C-1.387713 21.42927381 -4.84052652 21.64198737 -9.02734375 21.43359375 C-13.00282002 20.61530285 -14.7270799 18.92591191 -17.4375 15.9375 C-18.92834832 11.46495503 -18.92834832 7.41004497 -17.4375 2.9375 C-16.7775 2.9375 -16.1175 2.9375 -15.4375 2.9375 C-15.1075 1.9475 -14.7775 0.9575 -14.4375 -0.0625 C-9.61924532 -2.89676746 -4.99395836 -2.17685364 0 0 Z M-10.4375 1.9375 C-10.4375 2.5975 -10.4375 3.2575 -10.4375 3.9375 C-11.0975 3.9375 -11.7575 3.9375 -12.4375 3.9375 C-14.5894437 7.16541555 -14.63836443 8.22150809 -14.4375 11.9375 C-13.1175 11.9375 -11.7975 11.9375 -10.4375 11.9375 C-7.36012879 8.92005337 -7.36012879 8.92005337 -6.4375 4.9375 C-5.7775 4.9375 -5.1175 4.9375 -4.4375 4.9375 C-4.4375 3.9475 -4.4375 2.9575 -4.4375 1.9375 C-6.4175 1.9375 -8.3975 1.9375 -10.4375 1.9375 Z " fill="#AFAFAF" transform="translate(91.4375,240.0625)"/>
<path d="M0 0 C1.32 0.33 2.64 0.66 4 1 C4 1.66 4 2.32 4 3 C4.66 3 5.32 3 6 3 C8.6315391 7.55782571 8.66716672 11.85447669 8 17 C6.09165132 20.52310525 4.71855424 21.65634362 1.125 23.375 C-3.48376191 24.29675238 -6.56462369 23.71768816 -10.75 21.625 C-13 20 -13 20 -15 17 C-15.73024382 12.46569532 -15.61755802 9.0008699 -13.1875 5.0625 C-8.87878788 1 -8.87878788 1 -5 1 C-3.02 6.28 -1.04 11.56 1 17 C3.38004065 15.06498936 3.38004065 15.06498936 3.1875 11.5625 C3.16031917 8.03774253 3.16031917 8.03774253 2 5 C1.01 4.67 0.02 4.34 -1 4 C-0.67 2.68 -0.34 1.36 0 0 Z M-9 7 C-11.41121859 8.95633975 -11.41121859 8.95633975 -11.125 12.625 C-11.08375 13.73875 -11.0425 14.8525 -11 16 C-10.34 16 -9.68 16 -9 16 C-8.67 16.99 -8.34 17.98 -8 19 C-6.35 19.33 -4.7 19.66 -3 20 C-3.47656412 18.20763933 -3.95633498 16.41613103 -4.4375 14.625 C-4.83775391 13.12839844 -4.83775391 13.12839844 -5.24609375 11.6015625 C-5.90184356 9.04582299 -5.90184356 9.04582299 -7 7 C-7.66 7 -8.32 7 -9 7 Z " fill="#B6B6B6" transform="translate(67,365)"/>
<path d="M0 0 C2.88776851 2.37816231 3.92522521 4.45672107 4.49609375 8.15234375 C4.67694308 15.05653305 4.67694308 15.05653305 1.6875 18.8125 C0.841875 19.451875 -0.00375 20.09125 -0.875 20.75 C-1.205 21.08 -1.535 21.41 -1.875 21.75 C-7.01416763 22.4161884 -10.71658816 22.54498852 -15.0625 19.5625 C-16.875 16.75 -16.875 16.75 -16.8671875 14.25 C-15.875 11.75 -15.875 11.75 -13.15234375 10.16796875 C-12.05019531 9.76191406 -10.94804687 9.35585938 -9.8125 8.9375 C-8.70777344 8.51855469 -7.60304687 8.09960938 -6.46484375 7.66796875 C-5.61019531 7.36503906 -4.75554687 7.06210937 -3.875 6.75 C-3.875 5.76 -3.875 4.77 -3.875 3.75 C-7.16499282 3.33168596 -7.16499282 3.33168596 -10.875 3.75 C-13.81473281 6.10418376 -13.81473281 6.10418376 -15.875 8.75 C-16.865 8.42 -17.855 8.09 -18.875 7.75 C-18.33212148 3.94985035 -16.76035357 2.21103687 -13.875 -0.25 C-9.01576124 -1.86974625 -4.66540052 -2.02843501 0 0 Z M-4.35546875 10.74609375 C-5.24878906 11.22175781 -6.14210937 11.69742187 -7.0625 12.1875 C-7.96355469 12.66058594 -8.86460937 13.13367188 -9.79296875 13.62109375 C-10.48003906 13.99363281 -11.16710937 14.36617188 -11.875 14.75 C-9.82266315 16.9977975 -8.86832739 17.7522242 -5.875 18.75 C-1.51878854 16.49530807 -1.51878854 16.49530807 1 12.5 C1.04125 11.9225 1.0825 11.345 1.125 10.75 C-1.80855424 9.41271667 -1.80855424 9.41271667 -4.35546875 10.74609375 Z " fill="#D4D4D4" transform="translate(247.875,442.25)"/>
<path d="M0 0 C1.29550781 -0.02126953 1.29550781 -0.02126953 2.6171875 -0.04296875 C5.30300523 0.20385874 6.86221729 0.74306572 9.125 2.1875 C12.57199711 6.94197877 12.20973315 10.66654223 11.44921875 16.2109375 C11.34222656 16.86320312 11.23523438 17.51546875 11.125 18.1875 C10.465 18.1875 9.805 18.1875 9.125 18.1875 C9.125 18.8475 9.125 19.5075 9.125 20.1875 C5.92119983 22.32336678 5.10560033 22.41882175 1.4375 22.3125 C0.62925781 22.29445313 -0.17898438 22.27640625 -1.01171875 22.2578125 C-1.62660156 22.23460937 -2.24148438 22.21140625 -2.875 22.1875 C-2.71 21.053125 -2.545 19.91875 -2.375 18.75 C-1.79923916 14.21689706 -1.77994734 9.75002762 -1.875 5.1875 C-3.195 5.5175 -4.515 5.8475 -5.875 6.1875 C-6.07158808 7.60293415 -6.25687546 9.01994031 -6.4375 10.4375 C-6.54191406 11.22640625 -6.64632813 12.0153125 -6.75390625 12.828125 C-6.87527349 15.19282874 -6.57133257 16.9386037 -5.875 19.1875 C-7.195 19.5175 -8.515 19.8475 -9.875 20.1875 C-12.43796245 15.51386259 -12.1606654 11.22074327 -10.875 6.1875 C-7.71024474 1.2872338 -5.70421218 0.04231611 0 0 Z M3.125 5.1875 C2.76294536 7.14439037 2.41058579 9.10307668 2.0625 11.0625 C1.86527344 12.15304687 1.66804688 13.24359375 1.46484375 14.3671875 C0.86868101 17.13403283 0.86868101 17.13403283 2.125 19.1875 C5.28615776 17.81766497 6.1177092 17.1984362 8.125 14.1875 C8.59540308 9.96611243 8.59540308 9.96611243 6.75 6.3125 C5.18033986 4.99776334 5.18033986 4.99776334 3.125 5.1875 Z " fill="#B2B2B2" transform="translate(317.875,337.8125)"/>
<path d="M0 0 C0.061875 0.7425 0.12375 1.485 0.1875 2.25 C1.2452497 5.83007591 3.06862656 6.80146992 6 9 C7.20643566 12.61930698 7.32268559 15.19231005 7 19 C4.87130219 23.02932085 3.2143755 25.30500437 -1 27 C-5.63788458 27.78819148 -8.96877151 27.68017199 -12.9375 25.0625 C-16.0866665 20.3864649 -17 15.59556297 -17 10 C-12.93378861 4.87303782 -6.57650942 0 0 0 Z M-10.4375 9.5625 C-12.56667558 12.88401391 -12.42255137 15.12661246 -12 19 C-10.26425255 22.32164605 -10.26425255 22.32164605 -6.6875 22.875 C-3.07377181 23.21920685 -3.07377181 23.21920685 -0.125 22 C2.85362349 19.19658965 2.85695682 17.00520899 3 13 C2.24849977 9.72226496 2.24849977 9.72226496 -1 8 C-4.87338754 7.57744863 -7.11598609 7.43332442 -10.4375 9.5625 Z " fill="#D2D2D2" transform="translate(304,247)"/>
<path d="M0 0 C3.07061968 1.71368609 5.40450726 3.80901452 7 7 C7.52137294 11.82911 7.73402673 15.74166846 5.25 20 C1.89896183 22.97870059 0.12839194 23.87462312 -4.375 24.375 C-8.75105769 23.92230438 -10.68356181 22.86419662 -14 20 C-16.39994153 16.51621391 -17.02386581 14.68017561 -16.875 10.4375 C-15.84526618 6.39211715 -14.86815824 3.13125147 -11.16796875 0.890625 C-7.46373473 -0.63111438 -3.92437947 -0.68574797 0 0 Z M-9.9375 6.0625 C-12.19013965 8.83635116 -12.19013965 8.83635116 -12.5625 12.0625 C-12.1781341 15.0383584 -12.1781341 15.0383584 -10.5 17.375 C-6.86748926 19.73613198 -4.28156703 19.2854378 0 19 C0 18.34 0 17.68 0 17 C0.66 17 1.32 17 2 17 C2.803528 13.274552 3.26620739 10.76534624 2 7.125 C0.05502944 4.72203076 0.05502944 4.72203076 -3.375 3.875 C-7.10310349 3.67323681 -7.10310349 3.67323681 -9.9375 6.0625 Z " fill="#B7B7B7" transform="translate(184,189)"/>
<path d="M0 0 C3.52377819 2.22151234 5.45733709 4.15736694 7 8 C7.23346019 12.35014162 6.43833246 16.08521921 4.5625 20 C0.68434694 23.02685117 -3.17375806 23.14886136 -8 23 C-11.52719808 22.09943879 -13.72116646 20.84854192 -16 18 C-17.57190666 13.28428001 -17.50255135 9.45181501 -15.875 4.75 C-11.84866202 -1.1552957 -6.49594479 -1.98226769 0 0 Z M-11.4375 5.625 C-13.41935959 8.63742658 -13.38503376 10.45768939 -13 14 C-12.67 14.66 -12.34 15.32 -12 16 C-11.34 16 -10.68 16 -10 16 C-10 16.66 -10 17.32 -10 18 C-5.65290358 19.01095266 -2.92588896 19.29010189 1 17 C2.77846781 14.65565607 3.02197069 13.43941383 2.875 10.5 C1.76307812 7.32308035 0.75310837 5.95615595 -2 4 C-5.97487617 3.43216055 -8.06489221 3.37659481 -11.4375 5.625 Z " fill="#C8C8C8" transform="translate(66,285)"/>
<path d="M0 0 C4.29726774 0.0167426 5.36756002 0.07669681 8.875 2.8125 C9.49375 3.658125 10.1125 4.50375 10.75 5.375 C11.08 5.705 11.41 6.035 11.75 6.375 C12.28798008 10.45596316 12.68436984 14.62479978 10.703125 18.3359375 C8.38454579 21.13187125 6.43310137 23.17329237 2.76171875 23.61328125 C-1.42480585 23.74696859 -3.65215385 23.74102825 -7.3125 21.5 C-9.25 19.375 -9.25 19.375 -9.25 17.375 C-9.91 17.375 -10.57 17.375 -11.25 17.375 C-12.03734859 7.38442127 -12.03734859 7.38442127 -8.8125 3.25 C-7.966875 2.63125 -7.12125 2.0125 -6.25 1.375 C-4.53055699 -0.34444301 -2.34584777 0.08154016 0 0 Z M-6.25 6.375 C-7.19284754 9.83210764 -7.59062315 12.22926758 -6.5625 15.6875 C-4.9021811 17.82219573 -3.84824558 18.58109163 -1.25 19.375 C1.81653482 19.18725297 3.98137414 18.83617551 6.625 17.25 C8.45099685 14.20667192 8.17460581 11.83250445 7.75 8.375 C5.82017583 5.65895117 4.40799225 4.62807394 1.3125 3.4375 C-2.19696529 3.35190329 -3.6278605 4.04420933 -6.25 6.375 Z " fill="#C6C6C6" transform="translate(283.25,410.625)"/>
<path d="M0 0 C0.99 0 1.98 0 3 0 C6.28044085 9.5993228 9.30198468 19.21781037 12 29 C10.35 29.33 8.7 29.66 7 30 C6.81824219 29.35933594 6.63648438 28.71867187 6.44921875 28.05859375 C4.93729955 22.85604103 3.24999329 17.92855673 1 13 C0.01 16.96 -0.98 20.92 -2 25 C-2.66 24.34 -3.32 23.68 -4 23 C-4.33 23.99 -4.66 24.98 -5 26 C-5.99 25.67 -6.98 25.34 -8 25 C-7.566875 24.02933594 -7.566875 24.02933594 -7.125 23.0390625 C-5.44099266 18.48990379 -4.52364837 13.79687371 -3.5 9.0625 C-2.7100891 5.54492803 -2.02063367 3.0309505 0 0 Z " fill="#B6B6B6" transform="translate(155,184)"/>
<path d="M0 0 C1.65 0.33 3.3 0.66 5 1 C5.42998603 4.91409265 5.85715029 8.82848207 6.28173828 12.74316406 C6.49753938 14.72737551 6.71555385 16.71134582 6.93359375 18.6953125 C7.06894531 19.94570313 7.20429688 21.19609375 7.34375 22.484375 C7.46943359 23.63647461 7.59511719 24.78857422 7.72460938 25.97558594 C8 29 8 29 8 33 C6.35 32.67 4.7 32.34 3 32 C2.01 24.41 1.02 16.82 0 9 C-2.97 13.95 -2.97 13.95 -6 19 C-6.33 18.01 -6.66 17.02 -7 16 C-8.65 17.32 -10.3 18.64 -12 20 C-10.67576584 17.26644033 -9.23415194 14.67993385 -7.6171875 12.109375 C-7.17246094 11.40039062 -6.72773438 10.69140625 -6.26953125 9.9609375 C-5.80933594 9.23132813 -5.34914062 8.50171875 -4.875 7.75 C-4.40707031 7.00492187 -3.93914062 6.25984375 -3.45703125 5.4921875 C-2.30631492 3.66043497 -1.15337556 1.8300793 0 0 Z " fill="#C4C4C4" transform="translate(168,451)"/>
<path d="M0 0 C-0.33 1.32 -0.66 2.64 -1 4 C-2.04800781 4.13277344 -3.09601563 4.26554687 -4.17578125 4.40234375 C-5.55470778 4.58057235 -6.93361293 4.75896641 -8.3125 4.9375 C-9.00279297 5.02451172 -9.69308594 5.11152344 -10.40429688 5.20117188 C-13.40142288 5.59210135 -16.12450119 6.0415004 -19 7 C-17.9171875 7.83144531 -17.9171875 7.83144531 -16.8125 8.6796875 C-15.4203125 9.76636719 -15.4203125 9.76636719 -14 10.875 C-13.071875 11.59429687 -12.14375 12.31359375 -11.1875 13.0546875 C-10.465625 13.69664062 -9.74375 14.33859375 -9 15 C-9 15.66 -9 16.32 -9 17 C-8.01 17.33 -7.02 17.66 -6 18 C-6.33 19.32 -6.66 20.64 -7 22 C-10.4777493 20.43988817 -13.27224027 18.36827674 -16.25 16 C-17.14203125 15.29875 -18.0340625 14.5975 -18.953125 13.875 C-19.62859375 13.25625 -20.3040625 12.6375 -21 12 C-21 11.34 -21 10.68 -21 10 C-21.639375 9.690625 -22.27875 9.38125 -22.9375 9.0625 C-25 8 -25 8 -26 7 C-26.04063832 5.33382885 -26.042721 3.66611905 -26 2 C-17.26047454 0.55203128 -8.86088167 -0.29211698 0 0 Z " fill="#B2B2B2" transform="translate(328,364)"/>
<path d="M0 0 C18.51421983 2.5019216 18.51421983 2.5019216 24 5 C25.30078125 7.1015625 25.30078125 7.1015625 26 9 C22.5798883 12.84762566 18.53225744 15.60634022 14 18 C13.34 18 12.68 18 12 18 C12 18.66 12 19.32 12 20 C11.01 20 10.02 20 9 20 C9 20.66 9 21.32 9 22 C7.35 22.33 5.7 22.66 4 23 C4.12109375 20.76953125 4.12109375 20.76953125 5 18 C7.72265625 15.76171875 7.72265625 15.76171875 11.0625 13.6875 C12.16722656 12.99011719 13.27195312 12.29273438 14.41015625 11.57421875 C15.26480469 11.05472656 16.11945312 10.53523438 17 10 C13.76575573 6.76575573 9.37419232 6.83932322 4.96875 6.07421875 C2 5 2 5 0.59375 2.39453125 C0.3978125 1.60433594 0.201875 0.81414062 0 0 Z " fill="#C2C2C2" transform="translate(44,345)"/>
<path d="M0 0 C3.76013514 3.22297297 3.76013514 3.22297297 4.625 6.25 C4.875 9.875 4.875 9.875 4.625 13.25 C3.965 13.91 3.305 14.57 2.625 15.25 C2.27566406 14.53972656 1.92632812 13.82945312 1.56640625 13.09765625 C0.88384766 11.71900391 0.88384766 11.71900391 0.1875 10.3125 C-0.26496094 9.39597656 -0.71742188 8.47945313 -1.18359375 7.53515625 C-2.18025394 5.34471096 -2.18025394 5.34471096 -3.375 4.25 C-7.41654886 3.84602191 -7.41654886 3.84602191 -11.375 4.25 C-13.9154226 6.58830958 -13.9154226 6.58830958 -15.375 9.25 C-15.705 8.26 -16.035 7.27 -16.375 6.25 C-18.34322886 8.21822886 -18.03748381 11.59808709 -18.375 14.25 C-18.705 14.25 -19.035 14.25 -19.375 14.25 C-19.99876238 6.2970297 -19.99876238 6.2970297 -17.625 2.3125 C-12.25019536 -2.61440426 -6.49514798 -3.36785451 0 0 Z " fill="#A8A8A8" transform="translate(326.375,311.75)"/>
<path d="M0 0 C0.66 0.33 1.32 0.66 2 1 C2.78028239 9.92989844 2.78028239 9.92989844 -0.1875 14 C-5.03498449 17.44710009 -8.27811108 18.46764959 -14.1328125 17.55078125 C-16.8998602 16.73456007 -18.28544514 15.26321242 -20 13 C-21.26237731 10.47524538 -21.09856404 8.68799534 -21.0625 5.875 C-21.05347656 4.96492188 -21.04445313 4.05484375 -21.03515625 3.1171875 C-21.02355469 2.41851562 -21.01195312 1.71984375 -21 1 C-19.12992333 3.38009758 -17.87297096 5.30245009 -16.6875 8.125 C-15.2070433 11.18892353 -15.2070433 11.18892353 -12.1875 12.625 C-8.87755376 13.29952649 -8.87755376 13.29952649 -5.6875 11.4375 C-2.82587343 8.84207125 -2.20985275 7.77734943 -2 4 C-1.01 4.33 -0.02 4.66 1 5 C0.67 3.35 0.34 1.7 0 0 Z " fill="#BCBCBC" transform="translate(321,281)"/>
<path d="M0 0 C1.32 0.33 2.64 0.66 4 1 C3.42911651 5.24712225 2.41322719 8.77122128 0.6875 12.6875 C-1.48376072 17.6932884 -3.32957112 22.72730184 -5.0078125 27.91796875 C-5.33523437 28.60503906 -5.66265625 29.29210937 -6 30 C-6.99 30.33 -7.98 30.66 -9 31 C-9.66 30.67 -10.32 30.34 -11 30 C-10.34695118 26.10982879 -9.19461184 22.69556088 -7.71484375 19.04296875 C-7.26689453 17.93115234 -6.81894531 16.81933594 -6.35742188 15.67382812 C-5.88884766 14.52333984 -5.42027344 13.37285156 -4.9375 12.1875 C-4.46505859 11.01767578 -3.99261719 9.84785156 -3.50585938 8.64257812 C-2.34111284 5.76012457 -1.17236766 2.87936035 0 0 Z " fill="#B0B0B0" transform="translate(240,190)"/>
<path d="M0 0 C4.75 1.875 4.75 1.875 7 3 C7 3.66 7 4.32 7 5 C8.98 5.66 10.96 6.32 13 7 C13 7.66 13 8.32 13 9 C13.72574219 9.25523437 14.45148438 9.51046875 15.19921875 9.7734375 C18.1552984 11.06801074 20.30564666 12.60455104 22.8125 14.625 C23.60269531 15.25664062 24.39289063 15.88828125 25.20703125 16.5390625 C25.79871094 17.02117187 26.39039063 17.50328125 27 18 C26.67 18.99 26.34 19.98 26 21 C22.05879291 20.43697042 19.2491277 19.3208055 16 17 C16 16.34 16 15.68 16 15 C15.30519531 14.76539063 14.61039062 14.53078125 13.89453125 14.2890625 C10.45311285 12.75644702 7.64098452 10.67175588 4.6875 8.375 C4.13771484 7.95476562 3.58792969 7.53453125 3.02148438 7.1015625 C1.67707832 6.07279961 0.33798587 5.0370991 -1 4 C-0.67 2.68 -0.34 1.36 0 0 Z " fill="#B7B7B7" transform="translate(286,400)"/>
<path d="M0 0 C4.39623285 0.47554651 8.79190816 0.95606737 13.1875 1.4375 C15.05631836 1.63956055 15.05631836 1.63956055 16.96289062 1.84570312 C18.16494141 1.97783203 19.36699219 2.10996094 20.60546875 2.24609375 C21.71043701 2.36654053 22.81540527 2.4869873 23.95385742 2.61108398 C26.67365573 2.95833402 29.32092597 3.42233147 32 4 C31.67 5.65 31.34 7.3 31 9 C20.51899297 8.2823815 9.95132476 7.54980092 0 4 C0 2.68 0 1.36 0 0 Z " fill="#BCBCBC" transform="translate(37,309)"/>
<path d="M0 0 C1.32 0.33 2.64 0.66 4 1 C3.67 1.53625 3.34 2.0725 3 2.625 C1.70071973 5.71079063 1.64330062 7.65999676 2 11 C3.92632151 14.07775144 3.92632151 14.07775144 6.5 16.875 C7.3353125 17.84179688 8.170625 18.80859375 9.03125 19.8046875 C9.6809375 20.52914062 10.330625 21.25359375 11 22 C10.67 22.66 10.34 23.32 10 24 C5.68819268 23.51594564 3.9410446 22.37995134 1.1875 19.0625 C0.58292969 18.35222656 -0.02164063 17.64195312 -0.64453125 16.91015625 C-2 15 -2 15 -2 13 C-2.639375 12.773125 -3.27875 12.54625 -3.9375 12.3125 C-6 11 -6 11 -6.75 8.375 C-6.8325 7.59125 -6.915 6.8075 -7 6 C-6.401875 5.938125 -5.80375 5.87625 -5.1875 5.8125 C-2.12856542 4.6763243 -1.44958901 2.82669858 0 0 Z " fill="#B8B8B8" transform="translate(95,222)"/>
<path d="M0 0 C0.7734375 0.4640625 0.7734375 0.4640625 1.5625 0.9375 C0.06329488 4.05123372 -1.51902136 7.05978205 -3.4375 9.9375 C-4.0975 9.9375 -4.7575 9.9375 -5.4375 9.9375 C-5.4375 10.5975 -5.4375 11.2575 -5.4375 11.9375 C-6.0975 11.9375 -6.7575 11.9375 -7.4375 11.9375 C-7.7675 12.5975 -8.0975 13.2575 -8.4375 13.9375 C-9.4275 13.2775 -10.4175 12.6175 -11.4375 11.9375 C-10.65404285 10.76530457 -9.86047164 9.59986332 -9.0625 8.4375 C-8.62164062 7.7878125 -8.18078125 7.138125 -7.7265625 6.46875 C-7.30117187 5.9634375 -6.87578125 5.458125 -6.4375 4.9375 C-5.7775 4.9375 -5.1175 4.9375 -4.4375 4.9375 C-4.4375 3.9475 -4.4375 2.9575 -4.4375 1.9375 C-6.4175 1.9375 -8.3975 1.9375 -10.4375 1.9375 C-10.4375 2.5975 -10.4375 3.2575 -10.4375 3.9375 C-11.0975 3.9375 -11.7575 3.9375 -12.4375 3.9375 C-13.0975 6.5775 -13.7575 9.2175 -14.4375 11.9375 C-14.7675 11.9375 -15.0975 11.9375 -15.4375 11.9375 C-15.7675 10.2875 -16.0975 8.6375 -16.4375 6.9375 C-16.7675 8.9175 -17.0975 10.8975 -17.4375 12.9375 C-17.7675 12.9375 -18.0975 12.9375 -18.4375 12.9375 C-18.5625 6.3125 -18.5625 6.3125 -17.4375 2.9375 C-16.7775 2.9375 -16.1175 2.9375 -15.4375 2.9375 C-15.1075 1.9475 -14.7775 0.9575 -14.4375 -0.0625 C-9.61924532 -2.89676746 -4.99395836 -2.17685364 0 0 Z " fill="#B7B7B7" transform="translate(91.4375,240.0625)"/>
<path d="M0 0 C0.99 0 1.98 0 3 0 C4.98 7.26 6.96 14.52 9 22 C6.69 22.66 4.38 23.32 2 24 C0.32367583 24.64199649 -1.34750513 25.29894157 -3 26 C-3.33 24.35 -3.66 22.7 -4 21 C-3.360625 20.79375 -2.72125 20.5875 -2.0625 20.375 C0.26404372 19.13154271 0.26404372 19.13154271 0.875 16.3125 C1.01948095 12.48375494 0.12654073 9.64469061 -1 6 C-1.1875 3.125 -1.1875 3.125 -1 1 C-0.67 0.67 -0.34 0.34 0 0 Z " fill="#C7C7C7" transform="translate(221,447)"/>
<path d="M0 0 C0.33 0 0.66 0 1 0 C1.33 1.65 1.66 3.3 2 5 C2.66 4.34 3.32 3.68 4 3 C4.45375 4.11375 4.9075 5.2275 5.375 6.375 C6.72465986 9.96199008 6.72465986 9.96199008 9 12 C12.39597063 12.21676408 14.75778445 12.08073852 18 11 C18.33 8.36 18.66 5.72 19 3 C19.33 3 19.66 3 20 3 C20 4.98 20 6.96 20 9 C20.66 9 21.32 9 22 9 C21.67339377 12.0483248 20.99477806 13.00507689 18.75 15.1875 C15.87521715 17.08224324 14.42456599 17.91846271 11 18 C5.93074641 16.39918308 2.53454938 14.76495284 0 10 C-0.31453637 6.63807032 -0.23522686 3.36505092 0 0 Z " fill="#B0B0B0" transform="translate(251,435)"/>
<path d="M0 0 C1.66666667 0 3.33333333 0 5 0 C5 1.98 5 3.96 5 6 C4.01 6.33 3.02 6.66 2 7 C0.55847011 9.08382445 -0.73679408 11.12563412 -2 13.3125 C-4.17657316 17.00694654 -6.33589723 20.62824493 -9 24 C-10.32 23.67 -11.64 23.34 -13 23 C-11.05083212 17.86518024 -8.39903472 13.37314471 -5.5625 8.6875 C-5.07201172 7.85154297 -4.58152344 7.01558594 -4.07617188 6.15429688 C-3.59857422 5.36474609 -3.12097656 4.57519531 -2.62890625 3.76171875 C-2.19650635 3.03944092 -1.76410645 2.31716309 -1.31860352 1.57299805 C-0.88346436 1.05390869 -0.4483252 0.53481934 0 0 Z " fill="#A9A9A9" transform="translate(145,451)"/>
<path d="M0 0 C0.66 0.33 1.32 0.66 2 1 C2 5.29 2 9.58 2 14 C3.32 13.67 4.64 13.34 6 13 C7.1375213 10.91965706 7.1375213 10.91965706 7.75 8.4375 C7.99234375 7.61121094 8.2346875 6.78492188 8.484375 5.93359375 C8.65453125 5.29550781 8.8246875 4.65742188 9 4 C9.99 4 10.98 4 12 4 C11.67 7.3 11.34 10.6 11 14 C10.34 14 9.68 14 9 14 C9 14.66 9 15.32 9 16 C5.79619983 18.13586678 4.98060033 18.23132175 1.3125 18.125 C0.10013672 18.09792969 0.10013672 18.09792969 -1.13671875 18.0703125 C-1.75160156 18.04710937 -2.36648438 18.02390625 -3 18 C-2.69012383 15.74963714 -2.37700182 13.49972106 -2.0625 11.25 C-1.88847656 9.99703125 -1.71445312 8.7440625 -1.53515625 7.453125 C-1.13950662 4.90017407 -0.69553578 2.4813709 0 0 Z " fill="#D2D2D2" transform="translate(318,342)"/>
<path d="M0 0 C3 1 3 1 4 3 C4.04271307 7.348191 3.44417007 11.07303638 1.5625 15 C-2.27854545 17.99788913 -6.19156686 18.44729611 -11 18 C-13.625 16.0625 -13.625 16.0625 -15 14 C-14.67 13.67 -14.34 13.34 -14 13 C-11.66666667 13 -9.33333333 13 -7 13 C-5.32442621 12.71479595 -3.65182755 12.40044304 -2 12 C-1.93941406 11.30132812 -1.87882812 10.60265625 -1.81640625 9.8828125 C-1.73261719 8.97273438 -1.64882812 8.06265625 -1.5625 7.125 C-1.48128906 6.22007812 -1.40007812 5.31515625 -1.31640625 4.3828125 C-1 2 -1 2 0 0 Z " fill="#D7D7D7" transform="translate(69,290)"/>
<path d="M0 0 C2.18536546 1.79971273 3.12949135 3.1254772 4.125 5.75 C2.805 6.74 1.485 7.73 0.125 8.75 C0.125 7.76 0.125 6.77 0.125 5.75 C-4.22995821 3.75916196 -7.50443931 2.9598131 -12.125 4.5 C-14.06132781 5.6303042 -14.06132781 5.6303042 -14.625 7.875 C-14.7075 8.49375 -14.79 9.1125 -14.875 9.75 C-15.205 8.76 -15.535 7.77 -15.875 6.75 C-16.865 7.245 -16.865 7.245 -17.875 7.75 C-17.03680346 4.32101416 -16.43166761 2.24117731 -13.75 -0.125 C-8.90839619 -2.01954062 -4.78174939 -2.07902147 0 0 Z " fill="#BFBFBF" transform="translate(77.875,260.25)"/>
<path d="M0 0 C3.875 1.75 3.875 1.75 5 4 C4.39421747 6.01927511 3.73080266 8.02253397 3 10 C3.99 10 4.98 10 6 10 C5.01 11.485 5.01 11.485 4 13 C4.33 13.33 4.66 13.66 5 14 C5.04080783 15.99958364 5.04254356 18.00045254 5 20 C4.34 19.01 3.68 18.02 3 17 C2.071875 17.515625 1.14375 18.03125 0.1875 18.5625 C-3 20 -3 20 -6 19 C-5.8125 17.125 -5.8125 17.125 -5 15 C-2.4375 13.75 -2.4375 13.75 0 13 C0 12.34 0 11.68 0 11 C-0.66 11 -1.32 11 -2 11 C-1 3.57142857 -1 3.57142857 0 0 Z " fill="#ACACAC" transform="translate(283,246)"/>
<path d="M0 0 C2.88138457 1.86074955 5.44251644 3.88503289 7 7 C7.14640501 8.64142541 7.22096589 10.2898141 7.25 11.9375 C7.27578125 12.81277344 7.3015625 13.68804687 7.328125 14.58984375 C6.94290357 17.4193869 6.19305243 18.25132925 4 20 C3.81824219 19.08476562 3.63648438 18.16953125 3.44921875 17.2265625 C3.07216797 15.44378906 3.07216797 15.44378906 2.6875 13.625 C2.32205078 11.84996094 2.32205078 11.84996094 1.94921875 10.0390625 C1.26236391 6.72074996 1.26236391 6.72074996 -2 5 C-4.0492094 4.54860541 -4.0492094 4.54860541 -6.1875 4.375 C-7.445625 4.25125 -8.70375 4.1275 -10 4 C-9.34 3.67 -8.68 3.34 -8 3 C-8 2.34 -8 1.68 -8 1 C-4.88155225 -0.03948258 -3.23905421 -0.45196105 0 0 Z " fill="#CECECE" transform="translate(184,189)"/>
<path d="M0 0 C2.0625 2.0625 2.0625 2.0625 3 4 C2.34 4 1.68 4 1 4 C1 4.66 1 5.32 1 6 C-0.051875 5.62875 -1.10375 5.2575 -2.1875 4.875 C-6.20111263 3.953843 -7.49473344 4.04117457 -11 6 C-12.49743119 7.49743119 -12.33202693 8.98824239 -12.5625 11.0625 C-12.706875 12.361875 -12.85125 13.66125 -13 15 C-13.33 15 -13.66 15 -14 15 C-14.33 12.69 -14.66 10.38 -15 8 C-15.99 11.465 -15.99 11.465 -17 15 C-17.33 15 -17.66 15 -18 15 C-18.45647158 9.29410528 -17.69917584 6.39901992 -14 2 C-9.73115244 -1.78097927 -5.26393564 -1.5416536 0 0 Z " fill="#ACACAC" transform="translate(109,422)"/>
<path d="M0 0 C1.65 0 3.3 0 5 0 C3.64741104 7.88416983 1.45600648 15.39353334 -1 23 C-2.32 22.67 -3.64 22.34 -5 22 C-4.36684209 16.87475334 -3.31839344 12.03469229 -1.9375 7.0625 C-1.75123047 6.37865234 -1.56496094 5.69480469 -1.37304688 4.99023438 C-0.91910943 3.32579707 -0.46009084 1.66274688 0 0 Z " fill="#CCCCCC" transform="translate(225,195)"/>
<path d="M0 0 C0 1.32 0 2.64 0 4 C-0.68707031 4.25652344 -1.37414062 4.51304687 -2.08203125 4.77734375 C-7.57250916 6.99681571 -7.57250916 6.99681571 -11.33203125 11.3359375 C-12.04249341 13.55481931 -12.60987617 15.70427128 -13 18 C-13.33 17.34 -13.66 16.68 -14 16 C-14.66 16 -15.32 16 -16 16 C-16.43795472 11.62045284 -16.32894381 9.5183357 -13.9375 5.75 C-10.02401519 1.59192239 -5.72410295 0 0 0 Z " fill="#C6C6C6" transform="translate(75,389)"/>
<path d="M0 0 C0.66 0 1.32 0 2 0 C2.33 0.66 2.66 1.32 3 2 C3.99 2.33 4.98 2.66 6 3 C5.360625 3.185625 4.72125 3.37125 4.0625 3.5625 C1.61835167 4.93198035 1.61835167 4.93198035 1.125 8.4375 C0.64937195 12.10622176 0.64937195 12.10622176 3 15 C3.99 15.66 4.98 16.32 6 17 C5.01 17 4.02 17 3 17 C3.33 17.66 3.66 18.32 4 19 C6.12576782 19.46651207 6.12576782 19.46651207 8.5625 19.625 C9.38878906 19.69976562 10.21507812 19.77453125 11.06640625 19.8515625 C11.70449219 19.90054687 12.34257813 19.94953125 13 20 C13 20.33 13 20.66 13 21 C4.07010156 21.62422591 4.07010156 21.62422591 0 19.25 C-2.97870059 15.89896183 -3.87462312 14.12839194 -4.375 9.625 C-3.93397458 5.36175426 -2.71435136 3.2731884 0 0 Z " fill="#B2B2B2" transform="translate(48,322)"/>
<path d="M0 0 C0.66 0 1.32 0 2 0 C1.835 0.598125 1.67 1.19625 1.5 1.8125 C0.8885876 4.11344336 0.8885876 4.11344336 1 7 C-1.97 8.32 -4.94 9.64 -8 11 C-7.01 12.485 -7.01 12.485 -6 14 C-6.66 14 -7.32 14 -8 14 C-8 14.99 -8 15.98 -8 17 C-5.03 17 -2.06 17 1 17 C1 17.33 1 17.66 1 18 C-7.87057087 18.77509843 -7.87057087 18.77509843 -12.1875 15.8125 C-14 13 -14 13 -13.98828125 10.48828125 C-13 8 -13 8 -10.3125 6.5234375 C-9.219375 6.14445312 -8.12625 5.76546875 -7 5.375 C-3.75752299 4.28845208 -3.75752299 4.28845208 -1 3 C-0.67 2.01 -0.34 1.02 0 0 Z " fill="#AAAAAA" transform="translate(245,446)"/>
<path d="M0 0 C1.32 0.33 2.64 0.66 4 1 C4 1.66 4 2.32 4 3 C3.34 3 2.68 3 2 3 C1.34 6.3 0.68 9.6 0 13 C0.66 13 1.32 13 2 13 C3.02196992 13.97753644 4.01979625 14.9805881 5 16 C5.99 16.66 6.98 17.32 8 18 C5.12529507 19.43735246 3.18105412 19.38172649 0 19 C-2.63231951 16.85258145 -3.78562464 15.2096895 -4.3828125 11.83984375 C-4.5936842 7.62943887 -4.3524435 5.53967911 -2 1.9375 C-1.34 1.298125 -0.68 0.65875 0 0 Z " fill="#C4C4C4" transform="translate(56,368)"/>
<path d="M0 0 C0.99 0.33 1.98 0.66 3 1 C2.835 1.680625 2.67 2.36125 2.5 3.0625 C1.81917244 7.06236191 1.14208113 11.28416227 3 15 C3.99 15.33 4.98 15.66 6 16 C6 16.66 6 17.32 6 18 C6.66 18.33 7.32 18.66 8 19 C4.9797504 19.97079451 2.93961083 20.32756618 0 19 C-3.58532586 14.48514522 -4 9.62406749 -4 4 C-2 1.8125 -2 1.8125 0 0 Z " fill="#CCCCCC" transform="translate(291,253)"/>
<path d="M0 0 C3.56442676 -0.52418041 4.88469435 -0.07605266 7.9375 1.9375 C11.7433869 5.3578555 14.34014851 9.67066725 17 14 C16.67 14.66 16.34 15.32 16 16 C15.01 15.34 14.02 14.68 13 14 C12.67 14.99 12.34 15.98 12 17 C11.5978125 16.09507812 11.5978125 16.09507812 11.1875 15.171875 C8.09997225 8.87494341 5.53083333 6.54591808 -1 4 C-0.67 2.68 -0.34 1.36 0 0 Z " fill="#AFAFAF" transform="translate(75,390)"/>
<path d="M0 0 C4.99161094 0.10661693 8.8512 0.264768 13.125 3 C15.67009004 7.07214407 15.45843437 10.32396944 15 15 C14.01 15.33 13.02 15.66 12 16 C11.81824219 15.37351562 11.63648438 14.74703125 11.44921875 14.1015625 C11.19785156 13.28429687 10.94648438 12.46703125 10.6875 11.625 C10.44386719 10.81289063 10.20023438 10.00078125 9.94921875 9.1640625 C9.08631815 6.66815371 9.08631815 6.66815371 6 5 C3.67891331 4.29187186 1.34622853 3.61975848 -1 3 C-0.67 2.01 -0.34 1.02 0 0 Z " fill="#D0D0D0" transform="translate(121,436)"/>
<path d="M0 0 C0.33 2.97 0.66 5.94 1 9 C1.66 9 2.32 9 3 9 C3 9.66 3 10.32 3 11 C4.32 11.33 5.64 11.66 7 12 C6.01 12.33 5.02 12.66 4 13 C4 13.66 4 14.32 4 15 C-0.51478398 14.46884894 -3.34666857 12.63379708 -7 10 C-6.67 8.68 -6.34 7.36 -6 6 C-5.34 6 -4.68 6 -4 6 C-4 4.68 -4 3.36 -4 2 C-1 0 -1 0 0 0 Z " fill="#BCBCBC" transform="translate(63,266)"/>
<path d="M0 0 C2.47407292 0.32987639 3.6637767 0.57972087 5.25 2.5625 C6.58982423 6.91692875 6.69951104 11.25122241 5 15.5 C4.505 16.2425 4.505 16.2425 4 17 C3.34 17 2.68 17 2 17 C2 17.66 2 18.32 2 19 C1.01 19.33 0.02 19.66 -1 20 C-1.04254356 18.00045254 -1.04080783 15.99958364 -1 14 C-0.67 13.67 -0.34 13.34 0 13 C0.07280964 11.56419394 0.08367423 10.12499502 0.0625 8.6875 C0.05347656 7.90761719 0.04445312 7.12773437 0.03515625 6.32421875 C0.02355469 5.55722656 0.01195312 4.79023438 0 4 C0 2.68 0 1.36 0 0 Z " fill="#A0A0A0" transform="translate(62,322)"/>
<path d="M0 0 C-0.3125 1.875 -0.3125 1.875 -1 4 C-1.99 4.66 -2.98 5.32 -4 6 C-4.57993699 8.19454681 -4.57993699 8.19454681 -4.6875 10.625 C-4.75324219 11.44226563 -4.81898438 12.25953125 -4.88671875 13.1015625 C-4.92410156 13.72804688 -4.96148437 14.35453125 -5 15 C-6.9375 15.5625 -6.9375 15.5625 -9 16 C-10 15 -10 15 -10.3125 11.3125 C-10.2568625 6.88534477 -8.90911515 4.39396767 -6 1 C-2.6 -1.3 -2.6 -1.3 0 0 Z " fill="#A4A4A4" transform="translate(302,383)"/>
<path d="M0 0 C0.66 0 1.32 0 2 0 C2.61364554 7.24101736 2.61364554 7.24101736 -0.375 10.9375 C-3.81612328 13.64123972 -5.34068424 14.12370451 -9.625 14.0625 C-10.85089844 14.04896484 -10.85089844 14.04896484 -12.1015625 14.03515625 C-13.04128906 14.01775391 -13.04128906 14.01775391 -14 14 C-14.33 13.34 -14.66 12.68 -15 12 C-13.35 12 -11.7 12 -10 12 C-10.33 11.34 -10.66 10.68 -11 10 C-3.57142857 6.71428571 -3.57142857 6.71428571 0 6 C0 4.02 0 2.04 0 0 Z " fill="#B0B0B0" transform="translate(308,260)"/>
<path d="M0 0 C0.33 0 0.66 0 1 0 C1 1.98 1 3.96 1 6 C3.31 6 5.62 6 8 6 C8 7.98 8 9.96 8 12 C8.66 12.33 9.32 12.66 10 13 C9 14 9 14 6.1875 14.3125 C3 14 3 14 0.625 12.5625 C-1.73149894 8.84648245 -1.53199623 5.29957607 -1 1 C-0.67 0.67 -0.34 0.34 0 0 Z " fill="#CECECE" transform="translate(75,246)"/>
<path d="M0 0 C1.2065625 0.0309375 1.2065625 0.0309375 2.4375 0.0625 C2.7675 1.0525 3.0975 2.0425 3.4375 3.0625 C2.468125 3.371875 1.49875 3.68125 0.5 4 C-2.71195448 5.68331517 -2.71195448 5.68331517 -3.18359375 8.265625 C-3.41622996 10.54188084 -3.55290853 12.77493399 -3.5625 15.0625 C-4.2225 14.7325 -4.8825 14.4025 -5.5625 14.0625 C-5.5625 12.4125 -5.5625 10.7625 -5.5625 9.0625 C-6.2225 9.0625 -6.8825 9.0625 -7.5625 9.0625 C-7.5625 11.3725 -7.5625 13.6825 -7.5625 16.0625 C-6.9025 16.0625 -6.2425 16.0625 -5.5625 16.0625 C-5.8925 17.0525 -6.2225 18.0425 -6.5625 19.0625 C-6.5625 18.4025 -6.5625 17.7425 -6.5625 17.0625 C-7.2225 17.0625 -7.8825 17.0625 -8.5625 17.0625 C-9.34984859 7.07192127 -9.34984859 7.07192127 -6.125 2.9375 C-5.279375 2.31875 -4.43375 1.7 -3.5625 1.0625 C-2.5625 0.0625 -2.5625 0.0625 0 0 Z " fill="#AFAFAF" transform="translate(280.5625,410.9375)"/>
<path d="M0 0 C10.55808656 -0.18451025 10.55808656 -0.18451025 15 1 C14.67 2.65 14.34 4.3 14 6 C12.06183265 5.8858134 10.12444901 5.75826577 8.1875 5.625 C7.10855469 5.55539062 6.02960937 5.48578125 4.91796875 5.4140625 C2 5 2 5 -1 3 C-0.67 2.01 -0.34 1.02 0 0 Z " fill="#B6B6B6" transform="translate(54,312)"/>
<path d="M0 0 C1.32 0.33 2.64 0.66 4 1 C4 6.61 4 12.22 4 18 C3.01 18 2.02 18 1 18 C1 13.71 1 9.42 1 5 C-0.98 5.99 -0.98 5.99 -3 7 C-2.25 2.25 -2.25 2.25 0 0 Z " fill="#D2D2D2" transform="translate(149,446)"/>
<path d="M0 0 C5.71241466 0.38728235 8.73688282 0.87010523 13 5 C12 7 12 7 10 10 C9.67 9.01 9.34 8.02 9 7 C6.24921116 6.08307039 4.64051087 5.89113917 1.8125 5.9375 C0.554375 5.958125 -0.70375 5.97875 -2 6 C-1.49396008 3.83125748 -1.00016187 2.00032373 0 0 Z " fill="#AEAEAE" transform="translate(58,284)"/>
<path d="M0 0 C0.66 0 1.32 0 2 0 C2.185625 1.2065625 2.185625 1.2065625 2.375 2.4375 C2.58125 3.283125 2.7875 4.12875 3 5 C3.66 5.33 4.32 5.66 5 6 C5 6.66 5 7.32 5 8 C8.3 8.66 11.6 9.32 15 10 C14.67 10.99 14.34 11.98 14 13 C12.5629191 13.05422947 11.12524538 13.09289723 9.6875 13.125 C8.88699219 13.14820313 8.08648437 13.17140625 7.26171875 13.1953125 C5 13 5 13 2 11 C2 9.68 2 8.36 2 7 C1.34 7 0.68 7 0 7 C0 4.69 0 2.38 0 0 Z " fill="#DADADA" transform="translate(273,420)"/>
<path d="M0 0 C1.66666667 0 3.33333333 0 5 0 C5 1.98 5 3.96 5 6 C4.01 6.33 3.02 6.66 2 7 C0.61423077 8.62332967 -0.72641268 10.28724465 -2 12 C-2.33 11.34 -2.66 10.68 -3 10 C-3.99 11.485 -3.99 11.485 -5 13 C-5.66 12.67 -6.32 12.34 -7 12 C-5.90959673 9.99246302 -4.80226428 7.99411249 -3.6875 6 C-3.07261719 4.88625 -2.45773438 3.7725 -1.82421875 2.625 C-1.22222656 1.75875 -0.62023437 0.8925 0 0 Z " fill="#B8B8B8" transform="translate(145,451)"/>
<path d="M0 0 C1.32 0 2.64 0 4 0 C4 2.97 4 5.94 4 9 C3.34 9 2.68 9 2 9 C2.33 10.65 2.66 12.3 3 14 C1.68 14.33 0.36 14.66 -1 15 C-1.02703381 13.06257659 -1.04641125 11.12504521 -1.0625 9.1875 C-1.07410156 8.10855469 -1.08570313 7.02960938 -1.09765625 5.91796875 C-1 3 -1 3 0 0 Z " fill="#C0C0C0" transform="translate(198,180)"/>
<path d="M0 0 C5 1 5 1 7.375 3.25 C9 6 9 6 8.75 8.8125 C8.5025 9.534375 8.255 10.25625 8 11 C5.03 10.505 5.03 10.505 2 10 C1.34 6.7 0.68 3.4 0 0 Z " fill="#C9C9C9" transform="translate(269,434)"/>
<path d="M0 0 C1.8871875 0.0309375 1.8871875 0.0309375 3.8125 0.0625 C3.8125 0.3925 3.8125 0.7225 3.8125 1.0625 C1.5025 1.3925 -0.8075 1.7225 -3.1875 2.0625 C-1.5375 2.3925 0.1125 2.7225 1.8125 3.0625 C1.8125 3.3925 1.8125 3.7225 1.8125 4.0625 C0.20375 4.43375 0.20375 4.43375 -1.4375 4.8125 C-5.18399437 6.06133146 -6.70823882 7.08738658 -9.1875 10.0625 C-10.1775 9.7325 -11.1675 9.4025 -12.1875 9.0625 C-11.64462148 5.26235035 -10.07285357 3.52353687 -7.1875 1.0625 C-4.43671116 0.14557039 -2.82801087 -0.04636083 0 0 Z " fill="#9D9D9D" transform="translate(241.1875,440.9375)"/>
<path d="M0 0 C2.9375 0.8125 2.9375 0.8125 6 2 C6.33 2.99 6.66 3.98 7 5 C7.66 5.33 8.32 5.66 9 6 C9.33 4.68 9.66 3.36 10 2 C10.33 2 10.66 2 11 2 C11 4.64 11 7.28 11 10 C5.9427194 9.55376936 3.49357358 7.49357358 0 4 C0 2.68 0 1.36 0 0 Z " fill="#C7C7C7" transform="translate(141,204)"/>
<path d="M0 0 C0.721875 0.268125 1.44375 0.53625 2.1875 0.8125 C1.9375 4.1875 1.9375 4.1875 1.1875 7.8125 C-0.875 9.25 -0.875 9.25 -2.8125 9.8125 C-2.8125 8.1625 -2.8125 6.5125 -2.8125 4.8125 C-4.4625 4.8125 -6.1125 4.8125 -7.8125 4.8125 C-3.50480769 -0.23365385 -3.50480769 -0.23365385 0 0 Z " fill="#CFCFCF" transform="translate(292.8125,225.1875)"/>
<path d="M0 0 C0.99 1.32 1.98 2.64 3 4 C0.03 8.95 0.03 8.95 -3 14 C-3.33 13.01 -3.66 12.02 -4 11 C-5.65 12.32 -7.3 13.64 -9 15 C-7.38325319 11.57053707 -5.42402323 8.43736948 -3.375 5.25 C-2.74335938 4.26515625 -2.11171875 3.2803125 -1.4609375 2.265625 C-0.97882813 1.51796875 -0.49671875 0.7703125 0 0 Z " fill="#B4B4B4" transform="translate(165,456)"/>
<path d="M0 0 C0.33 0 0.66 0 1 0 C1 2.64 1 5.28 1 8 C1.66 8 2.32 8 3 8 C3 8.66 3 9.32 3 10 C4.32 10.66 5.64 11.32 7 12 C6.34 12 5.68 12 5 12 C5.33 12.99 5.66 13.98 6 15 C4.35 14.67 2.7 14.34 1 14 C1 13.34 1 12.68 1 12 C0.34 12 -0.32 12 -1 12 C-2.11445498 9.77109005 -2.16480286 8.46944894 -2.1875 6 C-2.20167969 5.29875 -2.21585937 4.5975 -2.23046875 3.875 C-2 2 -2 2 0 0 Z " fill="#CACACA" transform="translate(94,429)"/>
<path d="M0 0 C0.99 0.33 1.98 0.66 3 1 C3.144375 2.2375 3.28875 3.475 3.4375 4.75 C3.78688502 7.56504499 4.20379366 10.2701497 5 13 C3.68 13.33 2.36 13.66 1 14 C-1.61895048 9.22426677 -0.83119431 5.15565119 0 0 Z " fill="#C8C8C8" transform="translate(307,344)"/>
<path d="M0 0 C1.79244141 0.01740234 1.79244141 0.01740234 3.62109375 0.03515625 C5.41740234 0.04869141 5.41740234 0.04869141 7.25 0.0625 C8.17683594 0.07410156 9.10367188 0.08570313 10.05859375 0.09765625 C10.05859375 1.41765625 10.05859375 2.73765625 10.05859375 4.09765625 C6.71418698 4.68484217 3.4592006 5.1562874 0.05859375 5.09765625 C-2.56640625 3.16015625 -2.56640625 3.16015625 -3.94140625 1.09765625 C-2.94140625 0.09765625 -2.94140625 0.09765625 0 0 Z " fill="#D7D7D7" transform="translate(57.94140625,302.90234375)"/>
<path d="M0 0 C0.33 0.99 0.66 1.98 1 3 C1.99 2.67 2.98 2.34 4 2 C3.54965877 3.62723299 3.08944646 5.25173664 2.625 6.875 C2.36976563 7.77992188 2.11453125 8.68484375 1.8515625 9.6171875 C1 12 1 12 -1 14 C-1.33 13.34 -1.66 12.68 -2 12 C-2.99 11.67 -3.98 11.34 -5 11 C-4.35474023 9.5414128 -3.7087728 8.08313863 -3.0625 6.625 C-2.70285156 5.81289062 -2.34320313 5.00078125 -1.97265625 4.1640625 C-1.3430097 2.76316215 -0.68687358 1.37374716 0 0 Z " fill="#BBBBBB" transform="translate(289,232)"/>
<path d="M0 0 C0.33 0.66 0.66 1.32 1 2 C1.66 2 2.32 2 3 2 C2.21681311 5.91593446 0.60820142 9.36406635 -1 13 C-4 13 -4 13 -6 12 C-4.02 8.04 -2.04 4.08 0 0 Z " fill="#B8B8B8" transform="translate(305,387)"/>
<path d="M0 0 C5.53846154 0.61538462 5.53846154 0.61538462 7.875 2.5625 C8.431875 3.2740625 8.431875 3.2740625 9 4 C8.34 5.32 7.68 6.64 7 8 C6.01 8 5.02 8 4 8 C4 7.01 4 6.02 4 5 C2.02 5 0.04 5 -2 5 C-1.34 3.35 -0.68 1.7 0 0 Z " fill="#CDCDCD" transform="translate(302,381)"/>
<path d="M0 0 C3.96 0 7.92 0 12 0 C11.67 1.32 11.34 2.64 11 4 C6.38 4 1.76 4 -3 4 C-2.67 3.34 -2.34 2.68 -2 2 C-1.34 2 -0.68 2 0 2 C0 1.34 0 0.68 0 0 Z " fill="#CACACA" transform="translate(316,364)"/>
<path d="M0 0 C-0.33 1.65 -0.66 3.3 -1 5 C-1.66 5 -2.32 5 -3 5 C-3.66 7.64 -4.32 10.28 -5 13 C-5.33 13 -5.66 13 -6 13 C-6.33 11.35 -6.66 9.7 -7 8 C-7.33 9.98 -7.66 11.96 -8 14 C-8.33 14 -8.66 14 -9 14 C-9.125 7.375 -9.125 7.375 -8 4 C-7.34 4 -6.68 4 -6 4 C-5.67 3.01 -5.34 2.02 -5 1 C-3 0 -3 0 0 0 Z " fill="#B6B6B6" transform="translate(82,239)"/>
<path d="M0 0 C7.11796247 0.36193029 7.11796247 0.36193029 10.9375 3.125 C13.35506808 6.49494339 13.75889617 8.90123495 14 13 C13.34 12.01 12.68 11.02 12 10 C9.94996045 8.80767387 9.94996045 8.80767387 8 8 C8 7.34 8 6.68 8 6 C7.01 5.67 6.02 5.34 5 5 C4.67 4.01 4.34 3.02 4 2 C1.99983534 0.79117904 1.99983534 0.79117904 0 0 Z " fill="#A7A7A7" transform="translate(249,205)"/>
<path d="M0 0 C0.33 0 0.66 0 1 0 C1.33 3.3 1.66 6.6 2 10 C2.99 10.33 3.98 10.66 5 11 C3.625 12.5 3.625 12.5 2 14 C1.34 14 0.68 14 0 14 C-2.08940868 10.86588698 -2.27364412 10.02549528 -2.25 6.4375 C-2.25515625 5.65246094 -2.2603125 4.86742187 -2.265625 4.05859375 C-2 2 -2 2 0 0 Z " fill="#C8C8C8" transform="translate(310,317)"/>
<path d="M0 0 C8.81299886 -0.44811859 8.81299886 -0.44811859 13 3 C14.3125 5.1875 14.3125 5.1875 15 7 C13.68 7.99 12.36 8.98 11 10 C11 9.01 11 8.02 11 7 C8.525 6.01 8.525 6.01 6 5 C6.33 3.68 6.66 2.36 7 1 C4.69 1 2.38 1 0 1 C0 0.67 0 0.34 0 0 Z " fill="#9F9F9F" transform="translate(67,259)"/>
<path d="M0 0 C0.99 0 1.98 0 3 0 C3.69670416 1.78810766 4.38211189 3.58062052 5.0625 5.375 C5.63677734 6.87160156 5.63677734 6.87160156 6.22265625 8.3984375 C7 11 7 11 6 13 C5.34 12.67 4.68 12.34 4 12 C3.67 12.66 3.34 13.32 3 14 C2.87882812 13.43410156 2.75765625 12.86820312 2.6328125 12.28515625 C2.38144531 11.18494141 2.38144531 11.18494141 2.125 10.0625 C1.96257813 9.33160156 1.80015625 8.60070312 1.6328125 7.84765625 C1.17038477 5.79299706 1.17038477 5.79299706 -1 5 C-1 2 -1 2 0 0 Z " fill="#9F9F9F" transform="translate(59,366)"/>
<path d="M0 0 C2.54532213 1.33964322 4.57078153 2.42770871 6.3125 4.75 C7.26539512 7.86856585 7.12452507 10.76234825 7 14 C6.67 14 6.34 14 6 14 C6 12.02 6 10.04 6 8 C5.34 8 4.68 8 4 8 C4 9.98 4 11.96 4 14 C3.34 13.67 2.68 13.34 2 13 C2 10.36 2 7.72 2 5 C1.01 4.67 0.02 4.34 -1 4 C-0.67 2.68 -0.34 1.36 0 0 Z " fill="#AAAAAA" transform="translate(304,252)"/>
<path d="M0 0 C-0.99 1.485 -0.99 1.485 -2 3 C-2.66 3 -3.32 3 -4 3 C-4.33 4.32 -4.66 5.64 -5 7 C-5.66 7 -6.32 7 -7 7 C-7.33 7.99 -7.66 8.98 -8 10 C-8.33 10 -8.66 10 -9 10 C-9.25 3.375 -9.25 3.375 -7 0 C-4.02096037 -1.15317663 -3.13440869 -1.0448029 0 0 Z " fill="#CFCFCF" transform="translate(261,431)"/>
<path d="M0 0 C0.33 0 0.66 0 1 0 C1 1.98 1 3.96 1 6 C1.66 6 2.32 6 3 6 C3 4.02 3 2.04 3 0 C3.33 0 3.66 0 4 0 C4.33 2.64 4.66 5.28 5 8 C5.66 8 6.32 8 7 8 C6.814375 8.61875 6.62875 9.2375 6.4375 9.875 C5.76313824 12.04160178 5.76313824 12.04160178 7 14 C4.3354186 12.98929671 3.04804128 12.0600516 1.25 9.8125 C-0.27739989 6.37585024 -0.21888362 3.72102151 0 0 Z " fill="#9F9F9F" transform="translate(49,293)"/>
<path d="M0 0 C0.99 0.33 1.98 0.66 3 1 C3.125 7.75 3.125 7.75 2 10 C-0.4375 9.25 -0.4375 9.25 -3 8 C-3.8125 5.875 -3.8125 5.875 -4 4 C-2.68 4 -1.36 4 0 4 C0 2.68 0 1.36 0 0 Z " fill="#C1C1C1" transform="translate(259,214)"/>
<path d="M0 0 C0.66 0 1.32 0 2 0 C1.835 0.598125 1.67 1.19625 1.5 1.8125 C0.8885876 4.11344336 0.8885876 4.11344336 1 7 C-3.455 8.485 -3.455 8.485 -8 10 C-8.99 9.01 -9.98 8.02 -11 7 C-10.28972656 6.74605469 -9.57945312 6.49210937 -8.84765625 6.23046875 C-7.92855469 5.88628906 -7.00945312 5.54210937 -6.0625 5.1875 C-5.14597656 4.85105469 -4.22945312 4.51460938 -3.28515625 4.16796875 C-0.6659576 3.16590906 -0.6659576 3.16590906 0 0 Z " fill="#A2A2A2" transform="translate(245,446)"/>
<path d="M0 0 C0.33 0 0.66 0 1 0 C1 1.65 1 3.3 1 5 C1.66 5 2.32 5 3 5 C3 5.66 3 6.32 3 7 C3.66 7 4.32 7 5 7 C5.66 8.98 6.32 10.96 7 13 C6.01 13 5.02 13 4 13 C3.67 13.66 3.34 14.32 3 15 C0.31780178 9.63560356 -0.3152595 5.98993047 0 0 Z " fill="#ABABAB" transform="translate(58,400)"/>
<path d="M0 0 C1.32 0.33 2.64 0.66 4 1 C3.44894091 4.9492568 2.61064629 8.34920174 1 12 C0.34 10.68 -0.32 9.36 -1 8 C-1.99 8.495 -1.99 8.495 -3 9 C-2.01 6.03 -1.02 3.06 0 0 Z " fill="#A4A4A4" transform="translate(240,190)"/>
<path d="M0 0 C0.33 0 0.66 0 1 0 C1.33 1.65 1.66 3.3 2 5 C3.65 5 5.3 5 7 5 C6.67 6.32 6.34 7.64 6 9 C3.03 9 0.06 9 -3 9 C-3.33 8.01 -3.66 7.02 -4 6 C-2.68 6 -1.36 6 0 6 C0 4.02 0 2.04 0 0 Z " fill="#F8F8F8" transform="translate(55,333)"/>
<path d="M0 0 C3.3 0.99 6.6 1.98 10 3 C10 4.65 10 6.3 10 8 C5.60316512 6.80086322 2.90159066 5.5711885 0 2 C0 1.34 0 0.68 0 0 Z " fill="#C8C8C8" transform="translate(74,282)"/>
<path d="M0 0 C0.66 0 1.32 0 2 0 C2 2.64 2 5.28 2 8 C2.66 8.33 3.32 8.66 4 9 C4 10.65 4 12.3 4 14 C2.68 14 1.36 14 0 14 C0 9.38 0 4.76 0 0 Z " fill="#EAEAEA" transform="translate(152,465)"/>
<path d="M0 0 C2.475 0.495 2.475 0.495 5 1 C5.12375 1.804375 5.2475 2.60875 5.375 3.4375 C5.684375 4.7059375 5.684375 4.7059375 6 6 C6.66 6.33 7.32 6.66 8 7 C6.02 7.99 6.02 7.99 4 9 C0 3.375 0 3.375 0 0 Z " fill="#C4C4C4" transform="translate(62,413)"/>
<path d="M0 0 C1.875 1.5 1.875 1.5 3 3 C-0.82989106 4.80230168 -3.78121808 5.19622241 -8 5 C-8.33 4.01 -8.66 3.02 -9 2 C-5.53076119 -0.31282587 -4.07794425 -0.42478586 0 0 Z " fill="#A6A6A6" transform="translate(271,234)"/>
<path d="M0 0 C1.32 0 2.64 0 4 0 C4.08121924 1.60332791 4.13929134 3.20784026 4.1875 4.8125 C4.22230469 5.70582031 4.25710937 6.59914062 4.29296875 7.51953125 C3.95081002 10.41647515 3.24606427 11.22555028 1 13 C0.14256349 8.60563789 -0.08948558 4.47427924 0 0 Z " fill="#A9A9A9" transform="translate(187,196)"/>
<path d="M0 0 C-0.30790262 2.84809926 -0.65478191 4.58286148 -2.5 6.8125 C-6.26487195 8.60081417 -9.90126405 8.23646554 -14 8 C-14 7.67 -14 7.34 -14 7 C-11.36 7 -8.72 7 -6 7 C-6.33 5.68 -6.66 4.36 -7 3 C-3.375 0 -3.375 0 0 0 Z " fill="#A4A4A4" transform="translate(293,426)"/>
<path d="M0 0 C-0.99 0 -1.98 0 -3 0 C-2.67 1.32 -2.34 2.64 -2 4 C-3.65 5.32 -5.3 6.64 -7 8 C-7.33 7.34 -7.66 6.68 -8 6 C-8.33 6.66 -8.66 7.32 -9 8 C-9.66 8 -10.32 8 -11 8 C-8.96414322 2.20563841 -6.51308788 -1.95392636 0 0 Z " fill="#989898" transform="translate(179,190)"/>
<path d="M0 0 C4.29 0.66 8.58 1.32 13 2 C13 2.33 13 2.66 13 3 C11.35 3 9.7 3 8 3 C8 3.66 8 4.32 8 5 C6.02 5 4.04 5 2 5 C1.34 3.35 0.68 1.7 0 0 Z " fill="#9B9B9B" transform="translate(44,345)"/>
<path d="M0 0 C-0.33 0.33 -0.66 0.66 -1 1 C-0.01 1.66 0.98 2.32 2 3 C-2.95 4.485 -2.95 4.485 -8 6 C-7.67 5.01 -7.34 4.02 -7 3 C-8.32 2.67 -9.64 2.34 -11 2 C-9.54494642 1.47007308 -8.08581873 0.9513211 -6.625 0.4375 C-5.81289063 0.14746094 -5.00078125 -0.14257812 -4.1640625 -0.44140625 C-2 -1 -2 -1 0 0 Z " fill="#A0A0A0" transform="translate(287,228)"/>
<path d="M0 0 C1.64666203 0.1135629 3.29236082 0.24117381 4.9375 0.375 C5.85402344 0.44460938 6.77054687 0.51421875 7.71484375 0.5859375 C8.84599609 0.79089844 8.84599609 0.79089844 10 1 C10.33 1.66 10.66 2.32 11 3 C9.68 3 8.36 3 7 3 C7.33 3.66 7.66 4.32 8 5 C5.36 4.67 2.72 4.34 0 4 C0 2.68 0 1.36 0 0 Z " fill="#A8A8A8" transform="translate(121,436)"/>
<path d="M0 0 C0.33 0.66 0.66 1.32 1 2 C2.98 2 4.96 2 7 2 C6.67 3.32 6.34 4.64 6 6 C-0.75 5.125 -0.75 5.125 -3 4 C-3 3.01 -3 2.02 -3 1 C-2.01 0.67 -1.02 0.34 0 0 Z " fill="#CECECE" transform="translate(301,399)"/>
<path d="M0 0 C1.32 0.33 2.64 0.66 4 1 C3.67 2.32 3.34 3.64 3 5 C2.34 5 1.68 5 1 5 C1 5.66 1 6.32 1 7 C0.34 7 -0.32 7 -1 7 C-1.33 7.66 -1.66 8.32 -2 9 C-2.99 8.34 -3.98 7.68 -5 7 C-3.35 4.69 -1.7 2.38 0 0 Z " fill="#A8A8A8" transform="translate(85,245)"/>
<path d="M0 0 C3.66881155 0.70554068 6.70450534 2.27735506 10 4 C9.01 4.495 9.01 4.495 8 5 C8.33 5.99 8.66 6.98 9 8 C8.236875 7.690625 7.47375 7.38125 6.6875 7.0625 C4.81210323 6.32106407 2.91315348 5.63771783 1 5 C0.67 3.35 0.34 1.7 0 0 Z " fill="#A0A0A0" transform="translate(247,213)"/>
<path d="M0 0 C0.33 0.66 0.66 1.32 1 2 C1.99 1.67 2.98 1.34 4 1 C2.75023244 4.65316671 2.32901247 5.78065836 -1 8 C-1.99 8 -2.98 8 -4 8 C-4.33 6.68 -4.66 5.36 -5 4 C-4.360625 3.71125 -3.72125 3.4225 -3.0625 3.125 C-0.84793921 2.17176549 -0.84793921 2.17176549 0 0 Z " fill="#A4A4A4" transform="translate(311,396)"/>
<path d="M0 0 C1.65 0 3.3 0 5 0 C5 0.99 5 1.98 5 3 C4.34 3 3.68 3 3 3 C2.34 5.64 1.68 8.28 1 11 C0.34 11 -0.32 11 -1 11 C-0.67 7.37 -0.34 3.74 0 0 Z " fill="#D5D5D5" transform="translate(225,195)"/>
<path d="M0 0 C4.75 0.875 4.75 0.875 7 2 C6.67 2.99 6.34 3.98 6 5 C4.68 5 3.36 5 2 5 C2 5.66 2 6.32 2 7 C1.34 7 0.68 7 0 7 C0 4.69 0 2.38 0 0 Z " fill="#C5C5C5" transform="translate(115,442)"/>
<path d="M0 0 C-0.639375 0.28875 -1.27875 0.5775 -1.9375 0.875 C-4.15206079 1.82823451 -4.15206079 1.82823451 -5 4 C-4.01 4.33 -3.02 4.66 -2 5 C-4.31 5.66 -6.62 6.32 -9 7 C-9.33 5.35 -9.66 3.7 -10 2 C-8.71211992 1.46987262 -7.41953322 0.9511671 -6.125 0.4375 C-5.40570313 0.14746094 -4.68640625 -0.14257812 -3.9453125 -0.44140625 C-2 -1 -2 -1 0 0 Z " fill="#969696" transform="translate(299,280)"/>
<path d="M0 0 C0.99 0.33 1.98 0.66 3 1 C3 1.66 3 2.32 3 3 C3.66 3.33 4.32 3.66 5 4 C4.278125 4.12375 3.55625 4.2475 2.8125 4.375 C0.04278106 4.9904931 -2.3970354 5.88444374 -5 7 C-5.33 5.35 -5.66 3.7 -6 2 C-4.7934375 1.7834375 -4.7934375 1.7834375 -3.5625 1.5625 C-1.07896294 1.25864751 -1.07896294 1.25864751 0 0 Z " fill="#A9A9A9" transform="translate(223,466)"/>
<path d="M0 0 C4.875 2.625 4.875 2.625 6 6 C5.01 6 4.02 6 3 6 C3.33 8.31 3.66 10.62 4 13 C1.76291355 8.84541088 0 4.76123067 0 0 Z " fill="#A4A4A4" transform="translate(184,190)"/>
<path d="M0 0 C3.3 0 6.6 0 10 0 C10 1.32 10 2.64 10 4 C9.29875 3.855625 8.5975 3.71125 7.875 3.5625 C4.92443859 2.98521625 1.96729849 2.48304859 -1 2 C-0.67 1.34 -0.34 0.68 0 0 Z " fill="#E1E1E1" transform="translate(238,442)"/>
<path d="M0 0 C0.66 0 1.32 0 2 0 C2.33 0.66 2.66 1.32 3 2 C3.99 2.33 4.98 2.66 6 3 C5.38125 3.28875 4.7625 3.5775 4.125 3.875 C1.86674235 4.93720042 1.86674235 4.93720042 0 7 C-0.66 7 -1.32 7 -2 7 C-2.66 7.66 -3.32 8.32 -4 9 C-3.4739075 5.21213403 -2.61896089 2.82847776 0 0 Z " fill="#909090" transform="translate(48,322)"/>
<path d="M0 0 C1.66666667 0 3.33333333 0 5 0 C4.38722388 2.96175123 3.74627478 4.38058783 2 7 C1.67 6.01 1.34 5.02 1 4 C-0.96822886 5.96822886 -0.66248381 9.34808709 -1 12 C-1.33 12 -1.66 12 -2 12 C-2.05422947 10.5629191 -2.09289723 9.12524538 -2.125 7.6875 C-2.14820313 6.88699219 -2.17140625 6.08648437 -2.1953125 5.26171875 C-2 3 -2 3 0 0 Z " fill="#939393" transform="translate(309,314)"/>
<path d="M0 0 C1.18414294 3.55242882 0.69535532 4.69830562 -0.4375 8.1875 C-0.72496094 9.08855469 -1.01242188 9.98960937 -1.30859375 10.91796875 C-1.53675781 11.60503906 -1.76492187 12.29210937 -2 13 C-2.66 12.01 -3.32 11.02 -4 10 C-4.66 10 -5.32 10 -6 10 C-5.34 7.03 -4.68 4.06 -4 1 C-3 5 -3 5 -4 8 C-3.34 8 -2.68 8 -2 8 C-1.34 5.36 -0.68 2.72 0 0 Z " fill="#898989" transform="translate(228,198)"/>
<path d="M0 0 C0.33 1.32 0.66 2.64 1 4 C1.66 4 2.32 4 3 4 C3.33 3.34 3.66 2.68 4 2 C4.66 4.31 5.32 6.62 6 9 C5.01 9 4.02 9 3 9 C2.67 9.66 2.34 10.32 2 11 C-0.67927341 6.98108988 -0.15601248 4.75838077 0 0 Z " fill="#989898" transform="translate(114,445)"/>
<path d="M0 0 C1.98 0.495 1.98 0.495 4 1 C4 1.66 4 2.32 4 3 C4.66 3 5.32 3 6 3 C6 3.66 6 4.32 6 5 C5.34 5 4.68 5 4 5 C3.67 5.99 3.34 6.98 3 8 C2.67 7.01 2.34 6.02 2 5 C1.01 4.67 0.02 4.34 -1 4 C-0.67 2.68 -0.34 1.36 0 0 Z " fill="#9E9E9E" transform="translate(67,365)"/>
<path d="M0 0 C0.66 0 1.32 0 2 0 C2.36923077 7.38461538 2.36923077 7.38461538 0.5 10.5 C0.005 10.995 -0.49 11.49 -1 12 C-1.99 11.67 -2.98 11.34 -4 11 C-3.01 9.6696875 -3.01 9.6696875 -2 8.3125 C-0.01139933 5.01888014 0.43735074 3.71748127 0 0 Z " fill="#D7D7D7" transform="translate(308,260)"/>
<path d="M0 0 C3.875 1.75 3.875 1.75 5 4 C4.0625 6.625 4.0625 6.625 3 9 C2.34 8.01 1.68 7.02 1 6 C0.67 7.65 0.34 9.3 0 11 C-0.66 11 -1.32 11 -2 11 C-1 3.57142857 -1 3.57142857 0 0 Z " fill="#939393" transform="translate(283,246)"/>
<path d="M0 0 C3.36591866 1.44253657 5.51047079 3.33264727 8 6 C7.01 6 6.02 6 5 6 C4.34 6.66 3.68 7.32 3 8 C0.9375 5.6875 0.9375 5.6875 -1 3 C-0.67 2.01 -0.34 1.02 0 0 Z " fill="#A1A1A1" transform="translate(137,199)"/>
<path d="M0 0 C1.32 0.66 2.64 1.32 4 2 C3.67 3.32 3.34 4.64 3 6 C1.35 6 -0.3 6 -2 6 C-1.125 1.125 -1.125 1.125 0 0 Z " fill="#B0B0B0" transform="translate(121,225)"/>
<path d="M0 0 C1.32 0 2.64 0 4 0 C4 1.98 4 3.96 4 6 C2.35 5.67 0.7 5.34 -1 5 C-0.67 3.35 -0.34 1.7 0 0 Z " fill="#969696" transform="translate(228,186)"/>
<path d="M0 0 C0.33 0 0.66 0 1 0 C1.33 3.63 1.66 7.26 2 11 C0.68 10.67 -0.64 10.34 -2 10 C-2.22036864 6.14354879 -1.60355101 3.50776784 0 0 Z " fill="#A4A4A4" transform="translate(174,473)"/>
<path d="M0 0 C0.75 1.6875 0.75 1.6875 1 4 C-0.9375 6.75 -0.9375 6.75 -3 9 C-3 8.34 -3 7.68 -3 7 C-3.99 7 -4.98 7 -6 7 C-5.67 6.01 -5.34 5.02 -5 4 C-4.01 4 -3.02 4 -2 4 C-1.34 2.68 -0.68 1.36 0 0 Z " fill="#C9C9C9" transform="translate(142,460)"/>
<path d="M0 0 C1.65 0 3.3 0 5 0 C4.625 2.4375 4.625 2.4375 4 5 C3.01 5.495 3.01 5.495 2 6 C1.01 5.01 0.02 4.02 -1 3 C-0.67 2.01 -0.34 1.02 0 0 Z " fill="#ACACAC" transform="translate(196,452)"/>
<path d="M0 0 C0.33 0 0.66 0 1 0 C1.33 2.97 1.66 5.94 2 9 C0.68 9.33 -0.64 9.66 -2 10 C-2.1953125 3.9453125 -2.1953125 3.9453125 -2 2 C-1.34 1.34 -0.68 0.68 0 0 Z " fill="#C2C2C2" transform="translate(295,389)"/>
<path d="M0 0 C0.33 0.66 0.66 1.32 1 2 C-0.32 3.32 -1.64 4.64 -3 6 C-2.67 6.66 -2.34 7.32 -2 8 C-3.65 8.33 -5.3 8.66 -7 9 C-6.875 6.75 -6.875 6.75 -6 4 C-2.9375 1.6875 -2.9375 1.6875 0 0 Z " fill="#979797" transform="translate(55,359)"/>
<path d="M0 0 C0.33 0.99 0.66 1.98 1 3 C1.66 3 2.32 3 3 3 C3.33 2.34 3.66 1.68 4 1 C3.43628586 4.26954202 2.50037734 5.82575883 0 8 C-0.33 7.34 -0.66 6.68 -1 6 C-2.65 6 -4.3 6 -6 6 C-3 4 -3 4 -1 4 C-0.67 2.68 -0.34 1.36 0 0 Z " fill="#9A9A9A" transform="translate(68,298)"/>
<path d="M0 0 C1.32 0 2.64 0 4 0 C4 1.98 4 3.96 4 6 C2.68 6.33 1.36 6.66 0 7 C0 4.69 0 2.38 0 0 Z " fill="#BEBEBE" transform="translate(93,247)"/>
<path d="M0 0 C0.33 0.66 0.66 1.32 1 2 C0.34 2 -0.32 2 -1 2 C-1 2.66 -1 3.32 -1 4 C-4.20380017 6.13586678 -5.01939967 6.23132175 -8.6875 6.125 C-9.89986328 6.09792969 -9.89986328 6.09792969 -11.13671875 6.0703125 C-12.05904297 6.03550781 -12.05904297 6.03550781 -13 6 C-12.67 5.01 -12.34 4.02 -12 3 C-12 3.66 -12 4.32 -12 5 C-9.69 5 -7.38 5 -5 5 C-4.731875 4.360625 -4.46375 3.72125 -4.1875 3.0625 C-3 1 -3 1 0 0 Z " fill="#8D8D8D" transform="translate(328,354)"/>
<path d="M0 0 C0.99 0 1.98 0 3 0 C3.25 5.625 3.25 5.625 1 9 C0.34 8.67 -0.32 8.34 -1 8 C-0.67 5.36 -0.34 2.72 0 0 Z " fill="#E4E4E4" transform="translate(327,346)"/>
<path d="M0 0 C1.98 0.495 1.98 0.495 4 1 C4.33 2.65 4.66 4.3 5 6 C2 6 2 6 0.3125 4.5 C-0.120625 4.005 -0.55375 3.51 -1 3 C-0.67 2.01 -0.34 1.02 0 0 Z " fill="#B3B3B3" transform="translate(62,322)"/>
<path d="M0 0 C0.99 0.99 1.98 1.98 3 3 C2.34 4.65 1.68 6.3 1 8 C0.67 7.01 0.34 6.02 0 5 C-1.65 6.32 -3.3 7.64 -5 9 C-3.50163895 5.88801935 -1.80066242 2.9465385 0 0 Z " fill="#828282" transform="translate(161,462)"/>
<path d="M0 0 C1.66666667 0 3.33333333 0 5 0 C5 1.98 5 3.96 5 6 C4.01 6 3.02 6 2 6 C1.67 5.34 1.34 4.68 1 4 C0.01 4.33 -0.98 4.66 -2 5 C-1.34 3.35 -0.68 1.7 0 0 Z " fill="#929292" transform="translate(145,451)"/>
<path d="M0 0 C2.64 0 5.28 0 8 0 C8 0.99 8 1.98 8 3 C5.36 3 2.72 3 0 3 C0 2.01 0 1.02 0 0 Z " fill="#D1D1D1" transform="translate(248,225)"/>
<path d="M0 0 C0.33 1.65 0.66 3.3 1 5 C-1.31 5 -3.62 5 -6 5 C-5.67 4.34 -5.34 3.68 -5 3 C-6.32 2.67 -7.64 2.34 -9 2 C-5.62902617 0.50178941 -3.79557881 0 0 0 Z " fill="#9A9A9A" transform="translate(265,428)"/>
<path d="M0 0 C2.41445371 3.02939501 3.46292236 5.13304097 4 9 C3.34 9 2.68 9 2 9 C1.67 9.99 1.34 10.98 1 12 C-0.26237731 9.47524538 -0.09856404 7.68799534 -0.0625 4.875 C-0.05347656 3.96492188 -0.04445313 3.05484375 -0.03515625 2.1171875 C-0.02355469 1.41851562 -0.01195312 0.71984375 0 0 Z " fill="#A6A6A6" transform="translate(300,282)"/>
<path d="M0 0 C1.2065625 0.0309375 1.2065625 0.0309375 2.4375 0.0625 C2.4375 1.7125 2.4375 3.3625 2.4375 5.0625 C1.1175 5.3925 -0.2025 5.7225 -1.5625 6.0625 C-2.2225 4.4125 -2.8825 2.7625 -3.5625 1.0625 C-2.5625 0.0625 -2.5625 0.0625 0 0 Z " fill="#F4F4F4" transform="translate(285.5625,242.9375)"/>
<path d="M0 0 C2.475 0.99 2.475 0.99 5 2 C5 2.99 5 3.98 5 5 C1.89448334 5 0.64738916 4.4606285 -2 3 C-1.34 2.01 -0.68 1.02 0 0 Z " fill="#959595" transform="translate(122,445)"/>
<path d="M0 0 C0.99 0 1.98 0 3 0 C3.33 1.98 3.66 3.96 4 6 C3.34 6 2.68 6 2 6 C1.67 6.66 1.34 7.32 1 8 C1 7.34 1 6.68 1 6 C0.34 5.67 -0.32 5.34 -1 5 C-1 2 -1 2 0 0 Z " fill="#8F8F8F" transform="translate(59,366)"/>
<path d="M0 0 C0 1.65 0 3.3 0 5 C-1.65 4.67 -3.3 4.34 -5 4 C-5.33 2.68 -5.66 1.36 -6 0 C-3 -1 -3 -1 0 0 Z " fill="#9F9F9F" transform="translate(319,273)"/>
<path d="M0 0 C2 3 2 3 1.625 5.6875 C1.41875 6.450625 1.2125 7.21375 1 8 C0.01 8.33 -0.98 8.66 -2 9 C-2 7.02 -2 5.04 -2 3 C-1.34 3 -0.68 3 0 3 C0 2.01 0 1.02 0 0 Z " fill="#A4A4A4" transform="translate(186,203)"/>
<path d="M0 0 C0.99 0 1.98 0 3 0 C3.625 1.875 3.625 1.875 4 4 C3.34 4.66 2.68 5.32 2 6 C1.67 5.34 1.34 4.68 1 4 C0.34 4.66 -0.32 5.32 -1 6 C-1.99 5.67 -2.98 5.34 -4 5 C-3.01 4.34 -2.02 3.68 -1 3 C-0.67 2.01 -0.34 1.02 0 0 Z " fill="#A9A9A9" transform="translate(248,454)"/>
<path d="M0 0 C2.475 0.495 2.475 0.495 5 1 C4.67 2.32 4.34 3.64 4 5 C3.01 5 2.02 5 1 5 C0.67 3.35 0.34 1.7 0 0 Z " fill="#9E9E9E" transform="translate(307,353)"/>
<path d="M0 0 C0.33 1.32 0.66 2.64 1 4 C1.66 4 2.32 4 3 4 C2.67 5.32 2.34 6.64 2 8 C1.67 7.34 1.34 6.68 1 6 C0.67 6.99 0.34 7.98 0 9 C-0.99 8.67 -1.98 8.34 -3 8 C-2.690625 7.236875 -2.38125 6.47375 -2.0625 5.6875 C-1.32106407 3.81210323 -0.63771783 1.91315348 0 0 Z " fill="#868686" transform="translate(150,201)"/>
<path d="M0 0 C-0.33 1.65 -0.66 3.3 -1 5 C-1.66 4.34 -2.32 3.68 -3 3 C-5.475 4.485 -5.475 4.485 -8 6 C-8 5.34 -8 4.68 -8 4 C-7.34 4 -6.68 4 -6 4 C-5.67 3.01 -5.34 2.02 -5 1 C-3 0 -3 0 0 0 Z " fill="#9B9B9B" transform="translate(82,239)"/>
<path d="M0 0 C0.66 0 1.32 0 2 0 C1.67 2.97 1.34 5.94 1 9 C0.34 9 -0.32 9 -1 9 C-1.125 2.25 -1.125 2.25 0 0 Z " fill="#F7F7F7" transform="translate(152,196)"/>
<path d="M0 0 C0.99 0 1.98 0 3 0 C3 2.64 3 5.28 3 8 C2.34 8 1.68 8 1 8 C0.67 5.36 0.34 2.72 0 0 Z " fill="#EAEAEA" transform="translate(71,370)"/>
<path d="M0 0 C0.66 0.66 1.32 1.32 2 2 C0.68 3.65 -0.64 5.3 -2 7 C-2.99 6.67 -3.98 6.34 -5 6 C-5 5.34 -5 4.68 -5 4 C-4.0409375 3.8453125 -4.0409375 3.8453125 -3.0625 3.6875 C-2.381875 3.460625 -1.70125 3.23375 -1 3 C-0.67 2.01 -0.34 1.02 0 0 Z " fill="#BABABA" transform="translate(325,352)"/>
<path d="M0 0 C1.32 0 2.64 0 4 0 C4.33 0.99 4.66 1.98 5 3 C4.67 3.66 4.34 4.32 4 5 C2.0625 4.6875 2.0625 4.6875 0 4 C-0.33 3.01 -0.66 2.02 -1 1 C-0.67 0.67 -0.34 0.34 0 0 Z " fill="#868686" transform="translate(300,247)"/>
<path d="M0 0 C0.33 0.99 0.66 1.98 1 3 C1.99 2.67 2.98 2.34 4 2 C3.67 3.65 3.34 5.3 3 7 C2.34 6.34 1.68 5.68 1 5 C0.01 5.66 -0.98 6.32 -2 7 C-1.125 2.25 -1.125 2.25 0 0 Z " fill="#858585" transform="translate(289,232)"/>
<path d="M0 0 C0.33 0 0.66 0 1 0 C1 2.31 1 4.62 1 7 C0.01 7.495 0.01 7.495 -1 8 C-1.625 5.125 -1.625 5.125 -2 2 C-1.34 1.34 -0.68 0.68 0 0 Z " fill="#EBEBEB" transform="translate(239,197)"/>
<path d="M0 0 C0.99 0 1.98 0 3 0 C3.1875 3.375 3.1875 3.375 3 7 C2.01 7.66 1.02 8.32 0 9 C0 6.03 0 3.06 0 0 Z " fill="#F9F9F9" transform="translate(187,196)"/>
<path d="M0 0 C0.33 0.66 0.66 1.32 1 2 C1.66 2 2.32 2 3 2 C2.67 3.32 2.34 4.64 2 6 C1.01 6 0.02 6 -1 6 C-1.99 6.495 -1.99 6.495 -3 7 C-1.125 2.25 -1.125 2.25 0 0 Z " fill="#8F8F8F" transform="translate(305,387)"/>
<path d="M0 0 C1.32 0.33 2.64 0.66 4 1 C3.34 2.32 2.68 3.64 2 5 C0.68 4.67 -0.64 4.34 -2 4 C-1.34 2.68 -0.68 1.36 0 0 Z " fill="#A2A2A2" transform="translate(95,222)"/>
<path d="M0 0 C0.625 1.875 0.625 1.875 1 4 C0.34 4.66 -0.32 5.32 -1 6 C-1.33 5.34 -1.66 4.68 -2 4 C-2.99 4.33 -3.98 4.66 -5 5 C-4 2 -4 2 -1.9375 0.8125 C-1.298125 0.544375 -0.65875 0.27625 0 0 Z " fill="#B0B0B0" transform="translate(146,454)"/>
<path d="M0 0 C1.65 0 3.3 0 5 0 C5 0.99 5 1.98 5 3 C3.02 3.33 1.04 3.66 -1 4 C-0.67 2.68 -0.34 1.36 0 0 Z " fill="#C5C5C5" transform="translate(82,238)"/>
</svg>
